<svg width="184" height="140" viewBox="0 0 184 140" fill="none" xmlns="http://www.w3.org/2000/svg">
<path d="M77.1345 47.1587C75.2852 44.847 71.5864 39.6688 71.5864 37.4495C71.5864 34.6754 71.5864 30.5144 77.1345 29.1273C81.573 28.0177 91.9295 28.665 96.553 29.1273C99.2114 29.8208 104.112 32.4561 102.448 37.4495C100.783 42.4429 97.8244 46.0029 96.553 47.1587" stroke="white" stroke-width="6" stroke-linecap="round"/>
<path d="M76.4411 49.2396L76.0943 49.5864L73.667 46.1188L76.7878 43.3447L79.9086 47.1591H93.7789L96.8997 43.3447L100.714 46.1188L97.94 49.5864" stroke="white" stroke-width="3" stroke-linecap="square"/>
<path d="M22 52.707H151.687" stroke="white" stroke-width="6" stroke-linecap="round"/>
<mask id="path-4-inside-1_321_6445" fill="white">
<path d="M49.0469 47.5055C49.0469 37.4813 53.029 27.8676 60.1172 20.7793C67.2055 13.6911 76.8192 9.70899 86.8434 9.70898C96.8677 9.70898 106.481 13.6911 113.57 20.7793C120.658 27.8676 124.64 37.4813 124.64 47.5055L112.73 47.5055C112.73 40.6401 110.002 34.0558 105.148 29.2011C100.293 24.3465 93.7089 21.6192 86.8434 21.6192C79.9779 21.6192 73.3937 24.3465 68.539 29.2011C63.6844 34.0558 60.9571 40.6401 60.9571 47.5055H49.0469Z"/>
</mask>
<path d="M49.0469 47.5055C49.0469 37.4813 53.029 27.8676 60.1172 20.7793C67.2055 13.6911 76.8192 9.70899 86.8434 9.70898C96.8677 9.70898 106.481 13.6911 113.57 20.7793C120.658 27.8676 124.64 37.4813 124.64 47.5055L112.73 47.5055C112.73 40.6401 110.002 34.0558 105.148 29.2011C100.293 24.3465 93.7089 21.6192 86.8434 21.6192C79.9779 21.6192 73.3937 24.3465 68.539 29.2011C63.6844 34.0558 60.9571 40.6401 60.9571 47.5055H49.0469Z" fill="white" stroke="white" stroke-width="2" mask="url(#path-4-inside-1_321_6445)"/>
<path d="M109.239 59.0593L122.213 59.1002C119.697 66.414 114.892 73.2649 108.649 77.7641C102.213 82.4027 94.4647 84.8679 86.5311 84.8014C78.5976 84.735 70.8919 82.1403 64.534 77.3945C58.3572 72.784 53.7651 66.3766 51.3812 59.0583L63.9275 59.0583C64.3628 59.9203 64.73 60.6675 65.0526 61.3241C65.8239 62.8937 66.3403 63.9449 66.9246 64.807C67.8071 66.109 68.8528 67.0038 71.0601 68.6514C75.5582 72.0089 81.0097 73.8445 86.6225 73.8916C92.2353 73.9386 97.7168 72.1945 102.271 68.9129C104.553 67.2681 105.676 65.9547 106.564 64.4119C106.978 63.6922 107.339 62.9258 107.74 62.0754C107.761 62.0305 107.782 61.9854 107.804 61.94C108.201 61.0967 108.648 60.1569 109.239 59.0593Z" fill="white" stroke="white"/>
<path d="M84.7959 9.38258L86.8435 1.89541L88.8911 9.38258H84.7959Z" fill="white" stroke="white"/>
<path d="M112.192 18.9883L119.056 15.3634L114.992 21.9767L112.192 18.9883Z" fill="white" stroke="white"/>
<path d="M58.3587 22.156L54.6966 15.3121L61.3319 19.3399L58.3587 22.156Z" fill="white" stroke="white"/>
<path d="M88.9043 85.6174L86.8567 93.1046L84.8091 85.6174L88.9043 85.6174Z" fill="white" stroke="white"/>
<path d="M61.5081 76.0117L54.6444 79.6366L58.7081 73.0233L61.5081 76.0117Z" fill="white" stroke="white"/>
<path d="M115.341 72.844L119.003 79.6879L112.368 75.6601L115.341 72.844Z" fill="white" stroke="white"/>
<path d="M41.865 41.6237C41.8878 40.7371 42.613 40.0303 43.4998 40.0303C44.3862 40.0303 45.1112 40.7365 45.1345 41.6225L45.4262 52.7071L45.1345 63.7901C45.1112 64.677 44.3855 65.3838 43.4983 65.3838C42.6116 65.3838 41.8861 64.6777 41.8622 63.7913L41.572 53.0535L41.865 41.6237Z" fill="white" stroke="white"/>
<path d="M37.0027 43.0113C37.0288 42.1233 37.7562 41.417 38.6446 41.417C39.533 41.417 40.2604 42.1233 40.2865 43.0113L40.5717 52.7067L40.2865 62.4022C40.2604 63.2902 39.533 63.9965 38.6446 63.9965C37.7562 63.9965 37.0288 63.2902 37.0027 62.4021L36.7175 52.7067L37.0027 43.0113Z" fill="white" stroke="white"/>
<path d="M32.8449 44.0542C32.8681 43.3575 33.4396 42.8047 34.1367 42.8047C34.8338 42.8047 35.4053 43.3575 35.4285 44.0542L35.717 52.7074L35.4285 61.3606C35.4053 62.0574 34.8338 62.6101 34.1367 62.6101C33.4396 62.6101 32.8681 62.0574 32.8449 61.3606L32.5564 52.7074L32.8449 44.0542Z" fill="white" stroke="white"/>
<rect x="30.8223" y="49.7393" width="1.08054" height="6.62866" rx="0.540272" fill="white" stroke="white"/>
<rect x="46.6197" y="49.586" width="0.693515" height="6.93515" rx="0.346757" fill="white" stroke="white" stroke-width="0.693515"/>
<path d="M131.822 63.7904C131.8 64.6769 131.075 65.3838 130.188 65.3838C129.301 65.3838 128.576 64.6776 128.553 63.7915L128.261 52.707L128.553 41.6239C128.576 40.7371 129.302 40.0302 130.189 40.0302C131.076 40.0302 131.801 40.7364 131.825 41.6228L132.116 52.3606L131.822 63.7904Z" fill="white" stroke="white"/>
<path d="M136.685 62.4027C136.659 63.2907 135.931 63.9971 135.043 63.9971C134.155 63.9971 133.427 63.2907 133.401 62.4027L133.116 52.7073L133.401 43.0119C133.427 42.1239 134.155 41.4176 135.043 41.4176C135.931 41.4176 136.659 42.1239 136.685 43.0119L136.97 52.7073L136.685 62.4027Z" fill="white" stroke="white"/>
<path d="M140.843 61.3599C140.819 62.0566 140.248 62.6094 139.551 62.6094C138.854 62.6094 138.282 62.0566 138.259 61.3599L137.971 52.7067L138.259 44.0534C138.282 43.3567 138.854 42.8039 139.551 42.8039C140.248 42.8039 140.819 43.3567 140.843 44.0534L141.131 52.7067L140.843 61.3599Z" fill="white" stroke="white"/>
<rect x="142.865" y="55.6748" width="1.08054" height="6.62866" rx="0.540272" transform="rotate(-180 142.865 55.6748)" fill="white" stroke="white"/>
<rect x="127.067" y="55.828" width="0.693515" height="6.93515" rx="0.346757" transform="rotate(-180 127.067 55.828)" fill="white" stroke="white" stroke-width="0.693515"/>
<path d="M95.4098 68.4526C95.3857 68.472 95.3638 68.4894 95.3441 68.5048H95.3318H95.314H95.2962H95.2785H95.2608H95.2431H95.2255H95.208H95.1904H95.1729H95.1555H95.1381H95.1207H95.1034H95.0861H95.0689H95.0517H95.0345H95.0174H95.0003H94.9833H94.9663H94.9493H94.9324H94.9155H94.8986H94.8818H94.865H94.8483H94.8316H94.8149H94.7983H94.7817H94.7652H94.7486H94.7322H94.7157H94.6993H94.6829H94.6666H94.6503H94.634H94.6177H94.6015H94.5854H94.5692H94.5531H94.537H94.521H94.505H94.489H94.4731H94.4571H94.4413H94.4254H94.4096H94.3938H94.3781H94.3623H94.3466H94.331H94.3153H94.2997H94.2842H94.2686H94.2531H94.2376H94.2222H94.2067H94.1913H94.1759H94.1606H94.1453H94.13H94.1147H94.0995H94.0843H94.0691H94.0539H94.0388H94.0237H94.0086H93.9936H93.9785H93.9635H93.9485H93.9336H93.9187H93.9038H93.8889H93.874H93.8592H93.8444H93.8296H93.8148H93.8001H93.7853H93.7706H93.756H93.7413H93.7267H93.712H93.6975H93.6829H93.6683H93.6538H93.6393H93.6248H93.6103H93.5959H93.5814H93.567H93.5526H93.5383H93.5239H93.5096H93.4952H93.4809H93.4666H93.4524H93.4381H93.4239H93.4097H93.3955H93.3813H93.3671H93.353H93.3388H93.3247H93.3106H93.2965H93.2824H93.2683H93.2543H93.2403H93.2262H93.2122H93.1982H93.1842H93.1703H93.1563H93.1424H93.1284H93.1145H93.1006H93.0867H93.0728H93.059H93.0451H93.0312H93.0174H93.0036H92.9897H92.9759H92.9621H92.9483H92.9346H92.9208H92.907H92.8933H92.8795H92.8658H92.852H92.8383H92.8246H92.8109H92.7972H92.7835H92.7698H92.7561H92.7424H92.7287H92.7151H92.7014H92.6878H92.6741H92.6605H92.6468H92.6332H92.6196H92.6059H92.5923H92.5787H92.5651H92.5514H92.5378H92.5242H92.5106H92.497H92.4834H92.4698H92.4562H92.4426H92.429H92.4154H92.4018H92.3882H92.3746H92.361H92.3474H92.3338H92.3202H92.3066H92.293H92.2794H92.2658H92.2522H92.2386H92.225H92.2114H92.1978H92.1842H92.1705H92.1569H92.1433H92.1297H92.116H92.1024H92.0887H92.0751H92.0614H92.0478H92.0341H92.0205H92.0068H91.9931H91.9794H91.9657H91.952H91.9383H91.9246H91.9109H91.8972H91.8834H91.8697H91.8559H91.8422H91.8284H91.8146H91.8008H91.787H91.7732H91.7594H91.7456H91.7318H91.7179H91.7041H91.6902H91.6763H91.6624H91.6485H91.6346H91.6207H91.6068H91.5928H91.5789H91.5649H91.5509H91.5369H91.5229H91.5089H91.4948H91.4808H91.4667H91.4526H91.4385H91.4244H91.4103H91.3961H91.382H91.3678H91.3536H91.3394H91.3252H91.3109H91.2967H91.2824H91.2681H91.2538H91.2395H91.2251H91.2108H91.1964H91.182H91.1676H91.1532H91.1387H91.1242H91.1097H91.0952H91.0807H91.0661H91.0515H91.0369H91.0223H91.0077H90.993H90.9783H90.9636H90.9489H90.9342H90.9194H90.9046H90.8898H90.8749H90.8601H90.8452H90.8303H90.8153H90.8004H90.7854H90.7704H90.7553H90.7403H90.7252H90.7101H90.6949H90.6798H90.6646H90.6494H90.6341H90.6188H90.6035H90.5882H90.5729H90.5575H90.5421H90.5266H90.5112H90.4957H90.4802H90.4646H90.449H90.4334H90.4178H90.4021H90.3864H90.3707H90.3549H90.3391H90.3233H90.3074H90.2915H90.2756H90.2597H90.2437H90.2277H90.2116H90.1955H90.1794H90.1633H90.1471H90.1309H90.1146H90.0983H90.082H90.0657H90.0493H90.0329H90.0164H89.9999H89.9834H89.9668H89.9502H89.9336H89.9169H89.9002H89.8834H89.8666H89.8498H89.833H89.8161H89.7991H89.7822H89.7651H89.7481H89.731H89.7139H89.6967H89.6795H89.6622H89.6449H89.6276H89.6102H89.5928H89.5754H89.5579H89.5403H89.5228H89.5051H89.4875H89.4698H89.452H89.4342H89.4164H89.3985H89.3806H89.3627H89.3446H89.3266H89.3085H89.2904H89.2722H89.254H89.2357H89.2174H89.199H89.1806H89.1621H89.1436H89.1251H89.1065H89.0878H89.0691H89.0504H89.0316H89.0128H88.9939H88.975H88.956H88.937H88.9179H88.8988H88.8796H88.8604H88.8411H88.8218H88.8024H88.783H88.7635H88.744H88.7244H88.7048H88.6851H88.6654H88.6456H88.6257H88.6059H88.5859H88.5659H88.5459H88.5258H88.5056H88.4854H88.4652H88.4448H88.4245H88.4041H88.3836H88.363H88.3425H88.3218H88.3011H88.2804H88.2595H88.2387H88.2177H88.1968H88.1757H88.1546H88.1335H88.1123H88.091H88.0697H88.0483H88.0268H88.0053H87.9838H87.9622H87.9405H87.9187H87.8969H87.8751H87.8532H87.8312H87.8091H87.787H87.7649H87.7427H87.7204H87.698H87.6756H87.6531H87.6306H87.608H87.5853H87.5626H87.5398H87.517H87.4941H87.4711H87.448H87.4249H87.4018H87.3785H87.3552H87.3319H87.3084H87.2849H87.2614H87.2377H87.214H87.1903H87.1649H87.1396H87.1144H87.0893H87.0642H87.0393H87.0144H86.9896H86.9648H86.9402H86.9156H86.8911H86.8667H86.8423H86.818H86.7938H86.7697H86.7456H86.7217H86.6978H86.6739H86.6502H86.6265H86.6029H86.5794H86.5559H86.5325H86.5092H86.4859H86.4628H86.4397H86.4166H86.3937H86.3708H86.348H86.3252H86.3026H86.28H86.2574H86.235H86.2126H86.1902H86.168H86.1458H86.1237H86.1016H86.0796H86.0577H86.0359H86.0141H85.9924H85.9707H85.9491H85.9276H85.9061H85.8847H85.8634H85.8422H85.821H85.7998H85.7788H85.7578H85.7368H85.716H85.6951H85.6744H85.6537H85.6331H85.6125H85.592H85.5716H85.5512H85.5309H85.5106H85.4904H85.4703H85.4502H85.4302H85.4102H85.3903H85.3705H85.3507H85.331H85.3113H85.2917H85.2722H85.2527H85.2332H85.2139H85.1945H85.1753H85.1561H85.1369H85.1178H85.0988H85.0798H85.0609H85.042H85.0232H85.0044H84.9857H84.967H84.9484H84.9299H84.9114H84.8929H84.8745H84.8562H84.8379H84.8196H84.8014H84.7833H84.7652H84.7472H84.7292H84.7113H84.6934H84.6755H84.6577H84.64H84.6223H84.6047H84.5871H84.5695H84.552H84.5346H84.5172H84.4998H84.4825H84.4652H84.448H84.4308H84.4137H84.3966H84.3796H84.3626H84.3457H84.3287H84.3119H84.2951H84.2783H84.2616H84.2449H84.2282H84.2116H84.1951H84.1786H84.1621H84.1457H84.1293H84.1129H84.0966H84.0804H84.0641H84.0479H84.0318H84.0157H83.9996H83.9836H83.9676H83.9516H83.9357H83.9198H83.904H83.8882H83.8724H83.8567H83.841H83.8254H83.8097H83.7942H83.7786H83.7631H83.7476H83.7322H83.7168H83.7014H83.6861H83.6708H83.6555H83.6402H83.625H83.6099H83.5947H83.5796H83.5645H83.5495H83.5345H83.5195H83.5046H83.4896H83.4748H83.4599H83.4451H83.4303H83.4155H83.4008H83.3861H83.3714H83.3567H83.3421H83.3275H83.3129H83.2984H83.2839H83.2694H83.2549H83.2405H83.2261H83.2117H83.1973H83.183H83.1687H83.1544H83.1402H83.1259H83.1117H83.0975H83.0834H83.0692H83.0551H83.041H83.027H83.0129H82.9989H82.9849H82.9709H82.957H82.943H82.9291H82.9152H82.9013H82.8875H82.8736H82.8598H82.846H82.8322H82.8185H82.8047H82.791H82.7773H82.7636H82.75H82.7363H82.7227H82.7091H82.6954H82.6819H82.6683H82.6547H82.6412H82.6277H82.6142H82.6007H82.5872H82.5737H82.5603H82.5468H82.5334H82.52H82.5066H82.4932H82.4798H82.4665H82.4531H82.4398H82.4265H82.4131H82.3998H82.3865H82.3733H82.36H82.3467H82.3335H82.3202H82.307H82.2937H82.2805H82.2673H82.2541H82.2409H82.2277H82.2145H82.2014H82.1882H82.175H82.1619H82.1487H82.1356H82.1225H82.1093H82.0962H82.0831H82.07H82.0569H82.0437H82.0306H82.0175H82.0044H81.9913H81.9782H81.9652H81.9521H81.939H81.9259H81.9128H81.8997H81.8866H81.8736H81.8605H81.8474H81.8343H81.8212H81.8081H81.7951H81.782H81.7689H81.7558H81.7427H81.7296H81.7165H81.7034H81.6903H81.6772H81.6641H81.651H81.6379H81.6248H81.6116H81.5985H81.5854H81.5722H81.5591H81.5459H81.5328H81.5196H81.5065H81.4933H81.4801H81.4669H81.4537H81.4405H81.4273H81.4141H81.4008H81.3876H81.3743H81.3611H81.3478H81.3345H81.3213H81.308H81.2946H81.2813H81.268H81.2546H81.2413H81.2279H81.2146H81.2012H81.1878H81.1743H81.1609H81.1475H81.134H81.1205H81.107H81.0935H81.08H81.0665H81.053H81.0394H81.0258H81.0122H80.9986H80.985H80.9714H80.9577H80.944H80.9303H80.9166H80.9029H80.8891H80.8754H80.8616H80.8478H80.834H80.8201H80.8062H80.7924H80.7785H80.7645H80.7506H80.7366H80.7226H80.7086H80.6946H80.6805H80.6665H80.6524H80.6382H80.6241H80.6099H80.5957H80.5815H80.5673H80.553H80.5387H80.5244H80.5101H80.4957H80.4813H80.4669H80.4524H80.438H80.4235H80.4089H80.3944H80.3798H80.3652H80.3506H80.3359H80.3212H80.3065H80.2918H80.277H80.2622H80.2473H80.2325H80.2176H80.2026H80.1877H80.1727H80.1577H80.1426H80.1275H80.1124H80.0972H80.0821H80.0668H80.0516H80.0363H80.021H80.0056H79.9903H79.9748H79.9594H79.9439H79.9284H79.9128H79.8972H79.8816H79.8659H79.8502H79.8345H79.8187H79.8029H79.787H79.7711H79.7552H79.7392H79.7232H79.7072H79.6911H79.675H79.6588H79.6426H79.6264H79.6101H79.5938H79.5774H79.561H79.5445H79.528H79.5115H79.4949H79.4783H79.4617H79.445H79.4282H79.4114H79.3946H79.3777H79.3608H79.3438H79.3268H79.3098H79.2927H79.2755H79.2584H79.2411H79.2238H79.2065H79.1891H79.1717H79.1542H79.1367H79.1192H79.1015H79.0839H79.0662H79.0484H79.0306H79.0252C78.9896 68.4794 78.9465 68.4483 78.8968 68.4116C78.7332 68.2908 78.4972 68.1099 78.2129 67.873C77.6438 67.3988 76.8848 66.703 76.1269 65.8187C74.6043 64.0423 73.1265 61.554 73.1265 58.6021C73.1265 50.7896 79.4663 43.498 87.1903 43.498C94.8872 43.498 100.888 50.75 100.907 58.5649C100.398 61.9107 98.9741 64.4211 97.6746 66.0979C97.0225 66.9393 96.4029 67.5691 95.9488 67.9866C95.7219 68.1953 95.5366 68.3507 95.4098 68.4526Z" fill="white" stroke="white"/>
<mask id="path-23-inside-2_321_6445" fill="white">
<path d="M92.2482 48.5883C92.179 48.5732 92.1112 48.5592 92.0449 48.5459C92.0449 48.5459 92.1127 48.5459 92.2482 48.5883C93.3867 48.8365 94.9184 49.3786 96.5528 51.6667C98.2866 54.094 98.0554 55.9434 98.2866 56.8681L96.5528 53.0537C96.5528 53.0537 95.5125 51.32 94.1255 49.9329C93.172 48.9795 92.5463 48.6814 92.2482 48.5883Z"/>
</mask>
<path d="M92.2482 48.5883C92.179 48.5732 92.1112 48.5592 92.0449 48.5459C92.0449 48.5459 92.1127 48.5459 92.2482 48.5883C93.3867 48.8365 94.9184 49.3786 96.5528 51.6667C98.2866 54.094 98.0554 55.9434 98.2866 56.8681L96.5528 53.0537C96.5528 53.0537 95.5125 51.32 94.1255 49.9329C93.172 48.9795 92.5463 48.6814 92.2482 48.5883Z" fill="white"/>
<path d="M92.0449 48.5459L92.0449 45.5459L91.4566 51.4876L92.0449 48.5459ZM96.5528 51.6667L94.1116 53.4104L94.1116 53.4104L96.5528 51.6667ZM98.2866 56.8681L95.5555 58.1095L101.197 56.1405L98.2866 56.8681ZM96.5528 53.0537L99.2839 51.8123L99.2132 51.6568L99.1252 51.5103L96.5528 53.0537ZM94.1255 49.9329L92.0041 52.0542L92.0041 52.0542L94.1255 49.9329ZM91.4566 51.4876C91.51 51.4983 91.5604 51.5088 91.609 51.5194L92.8874 45.6572C92.7976 45.6376 92.7124 45.62 92.6333 45.6042L91.4566 51.4876ZM91.609 51.5194C91.981 51.6005 92.2923 51.7004 92.6331 51.9119C92.9811 52.1277 93.4923 52.5435 94.1116 53.4104L98.994 49.923C97.9788 48.5018 96.9071 47.5025 95.796 46.8132C94.6777 46.1195 93.6539 45.8243 92.8874 45.6572L91.609 51.5194ZM94.1116 53.4104C95.4117 55.2306 94.8898 55.6505 95.3761 57.5957L101.197 56.1405C101.221 56.2363 101.161 52.9574 98.994 49.923L94.1116 53.4104ZM101.018 55.6267L99.2839 51.8123L93.8217 54.2952L95.5555 58.1095L101.018 55.6267ZM96.5528 53.0537C99.1252 51.5103 99.1251 51.51 99.1249 51.5096C99.1248 51.5095 99.1246 51.5092 99.1245 51.509C99.1242 51.5085 99.1239 51.5081 99.1236 51.5076C99.123 51.5066 99.1224 51.5054 99.1216 51.5042C99.1202 51.5018 99.1184 51.4989 99.1164 51.4956C99.1125 51.4891 99.1074 51.4808 99.1014 51.4709C99.0894 51.4512 99.0732 51.4249 99.0532 51.3927C99.0132 51.3284 98.9574 51.2398 98.8873 51.1314C98.7473 50.9152 98.548 50.6164 98.3005 50.2698C97.815 49.5901 97.1006 48.6655 96.2468 47.8116L92.0041 52.0542C92.5373 52.5874 93.0367 53.2232 93.4181 53.7572C93.6039 54.0174 93.7514 54.2388 93.8498 54.3909C93.8989 54.4667 93.9352 54.5245 93.9575 54.5603C93.9686 54.5782 93.9762 54.5906 93.9801 54.5969C93.982 54.6001 93.983 54.6017 93.983 54.6018C93.9831 54.6019 93.9829 54.6015 93.9824 54.6007C93.9822 54.6004 93.9819 54.5999 93.9815 54.5993C93.9813 54.599 93.9812 54.5987 93.981 54.5983C93.9808 54.5982 93.9807 54.5979 93.9806 54.5978C93.9805 54.5975 93.9803 54.5972 96.5528 53.0537ZM96.2468 47.8116C95.0651 46.6299 94.0372 46.0043 93.1433 45.7249L91.3531 51.4516C91.0553 51.3585 91.279 51.3291 92.0041 52.0542L96.2468 47.8116ZM93.1433 45.7249C92.9392 45.6611 92.7442 45.6161 92.559 45.5872C92.4666 45.5727 92.3774 45.5624 92.2914 45.5557C92.2484 45.5523 92.2063 45.5499 92.1652 45.5483C92.1447 45.5475 92.1244 45.5469 92.1043 45.5465C92.0943 45.5463 92.0843 45.5461 92.0744 45.546C92.0695 45.546 92.0645 45.546 92.0596 45.5459C92.0572 45.5459 92.0547 45.5459 92.0523 45.5459C92.051 45.5459 92.0498 45.5459 92.0486 45.5459C92.048 45.5459 92.0471 45.5459 92.0468 45.5459C92.0458 45.5459 92.0449 45.5459 92.0449 48.5459C92.0449 51.5459 92.044 51.5459 92.0431 51.5459C92.0428 51.5459 92.0419 51.5459 92.0413 51.5459C92.04 51.5459 92.0388 51.5459 92.0376 51.5459C92.0352 51.5459 92.0327 51.5459 92.0303 51.5459C92.0255 51.5458 92.0206 51.5458 92.0158 51.5458C92.0062 51.5457 91.9966 51.5455 91.9871 51.5453C91.9681 51.545 91.9494 51.5444 91.931 51.5437C91.8941 51.5423 91.8584 51.5401 91.8239 51.5374C91.7548 51.532 91.691 51.5244 91.6325 51.5152C91.5151 51.4969 91.4217 51.4731 91.3531 51.4516L93.1433 45.7249Z" fill="white" mask="url(#path-23-inside-2_321_6445)"/>
<path d="M7.36 128.4C5.22667 128.4 3.61333 127.8 2.52 126.6C1.42667 125.373 0.88 123.627 0.88 121.36L0.88 119.76H5.04V121.68C5.04 123.493 5.8 124.4 7.32 124.4C8.06667 124.4 8.62667 124.187 9 123.76C9.4 123.307 9.6 122.587 9.6 121.6C9.6 120.427 9.33333 119.4 8.8 118.52C8.26667 117.613 7.28 116.533 5.84 115.28C4.02667 113.68 2.76 112.24 2.04 110.96C1.32 109.653 0.96 108.187 0.96 106.56C0.96 104.347 1.52 102.64 2.64 101.44C3.76 100.213 5.38667 99.6 7.52 99.6C9.62667 99.6 11.2133 100.213 12.28 101.44C13.3733 102.64 13.92 104.373 13.92 106.64V107.8H9.76V106.36C9.76 105.4 9.57333 104.707 9.2 104.28C8.82667 103.827 8.28 103.6 7.56 103.6C6.09333 103.6 5.36 104.493 5.36 106.28C5.36 107.293 5.62667 108.24 6.16 109.12C6.72 110 7.72 111.067 9.16 112.32C11 113.92 12.2667 115.373 12.96 116.68C13.6533 117.987 14 119.52 14 121.28C14 123.573 13.4267 125.333 12.28 126.56C11.16 127.787 9.52 128.4 7.36 128.4ZM22.9228 100H29.4028C31.5895 100 33.2295 100.587 34.3228 101.76C35.4161 102.933 35.9628 104.653 35.9628 106.92V109.68C35.9628 111.947 35.4161 113.667 34.3228 114.84C33.2295 116.013 31.5895 116.6 29.4028 116.6H27.3228L27.3228 128H22.9228L22.9228 100ZM29.4028 112.6C30.1228 112.6 30.6561 112.4 31.0028 112C31.3761 111.6 31.5628 110.92 31.5628 109.96V106.64C31.5628 105.68 31.3761 105 31.0028 104.6C30.6561 104.2 30.1228 104 29.4028 104H27.3228V112.6H29.4028ZM57.5588 100H64.1988C66.4654 100 68.1188 100.533 69.1588 101.6C70.1988 102.64 70.7188 104.253 70.7188 106.44V107.56C70.7188 109 70.4788 110.173 69.9988 111.08C69.5454 111.987 68.8388 112.64 67.8788 113.04V113.12C70.0654 113.867 71.1588 115.813 71.1588 118.96V121.36C71.1588 123.52 70.5854 125.173 69.4388 126.32C68.3188 127.44 66.6654 128 64.4788 128H57.5588V100ZM63.6788 111.4C64.5588 111.4 65.2121 111.173 65.6388 110.72C66.0921 110.267 66.3188 109.507 66.3188 108.44V106.88C66.3188 105.867 66.1321 105.133 65.7588 104.68C65.4121 104.227 64.8521 104 64.0788 104H61.9588V111.4H63.6788ZM64.4788 124C65.2521 124 65.8254 123.8 66.1988 123.4C66.5721 122.973 66.7588 122.253 66.7588 121.24V118.8C66.7588 117.52 66.5321 116.64 66.0788 116.16C65.6521 115.653 64.9321 115.4 63.9188 115.4H61.9588V124H64.4788ZM83.5306 100H89.4906L94.0506 128H89.6506L88.8506 122.44V122.52H83.8506L83.0506 128H78.9706L83.5306 100ZM88.3306 118.72L86.3706 104.88H86.2906L84.3706 118.72H88.3306ZM102.585 100H106.985V124H114.225V128H102.585V100ZM122.735 100H127.135V111.8L132.735 100L137.135 100L131.895 110.28L137.215 128H132.615L128.895 115.52L127.135 119.08V128H122.735V100ZM149.098 100H155.058L159.618 128H155.218L154.418 122.44V122.52H149.418L148.618 128H144.538L149.098 100ZM153.898 118.72L151.938 104.88H151.858L149.938 118.72H153.898ZM168.152 100H173.672L177.952 116.76H178.032V100H181.952V128H177.432L172.152 107.56H172.072V128H168.152V100Z" fill="#F6F6F6"/>
</svg>
