<svg width="237" height="95" viewBox="0 0 237 95" fill="none" xmlns="http://www.w3.org/2000/svg">
<path d="M148.68 61.2C147.613 61.2 146.807 60.9 146.26 60.3C145.713 59.6867 145.44 58.8133 145.44 57.68V56.88H147.52V57.84C147.52 58.7467 147.9 59.2 148.66 59.2C149.033 59.2 149.313 59.0933 149.5 58.88C149.7 58.6533 149.8 58.2933 149.8 57.8C149.8 57.2133 149.667 56.7 149.4 56.26C149.133 55.8067 148.64 55.2667 147.92 54.64C147.013 53.84 146.38 53.12 146.02 52.48C145.66 51.8267 145.48 51.0933 145.48 50.28C145.48 49.1733 145.76 48.32 146.32 47.72C146.88 47.1067 147.693 46.8 148.76 46.8C149.813 46.8 150.607 47.1067 151.14 47.72C151.687 48.32 151.96 49.1867 151.96 50.32V50.9H149.88V50.18C149.88 49.7 149.787 49.3533 149.6 49.14C149.413 48.9133 149.14 48.8 148.78 48.8C148.047 48.8 147.68 49.2467 147.68 50.14C147.68 50.6467 147.813 51.12 148.08 51.56C148.36 52 148.86 52.5333 149.58 53.16C150.5 53.96 151.133 54.6867 151.48 55.34C151.827 55.9933 152 56.76 152 57.64C152 58.7867 151.713 59.6667 151.14 60.28C150.58 60.8933 149.76 61.2 148.68 61.2ZM156.461 47H159.701C160.795 47 161.615 47.2933 162.161 47.88C162.708 48.4667 162.981 49.3267 162.981 50.46V51.84C162.981 52.9733 162.708 53.8333 162.161 54.42C161.615 55.0067 160.795 55.3 159.701 55.3H158.661V61H156.461V47ZM159.701 53.3C160.061 53.3 160.328 53.2 160.501 53C160.688 52.8 160.781 52.46 160.781 51.98V50.32C160.781 49.84 160.688 49.5 160.501 49.3C160.328 49.1 160.061 49 159.701 49H158.661V53.3H159.701ZM173.779 47H177.099C178.233 47 179.059 47.2667 179.579 47.8C180.099 48.32 180.359 49.1267 180.359 50.22V50.78C180.359 51.5 180.239 52.0867 179.999 52.54C179.773 52.9933 179.419 53.32 178.939 53.52V53.56C180.033 53.9333 180.579 54.9067 180.579 56.48V57.68C180.579 58.76 180.293 59.5867 179.719 60.16C179.159 60.72 178.333 61 177.239 61H173.779V47ZM176.839 52.7C177.279 52.7 177.606 52.5867 177.819 52.36C178.046 52.1333 178.159 51.7533 178.159 51.22V50.44C178.159 49.9333 178.066 49.5667 177.879 49.34C177.706 49.1133 177.426 49 177.039 49H175.979V52.7H176.839ZM177.239 59C177.626 59 177.913 58.9 178.099 58.7C178.286 58.4867 178.379 58.1267 178.379 57.62V56.4C178.379 55.76 178.266 55.32 178.039 55.08C177.826 54.8267 177.466 54.7 176.959 54.7H175.979V59H177.239ZM186.765 47H189.745L192.025 61H189.825L189.425 58.22V58.26H186.925L186.525 61H184.485L186.765 47ZM189.165 56.36L188.185 49.44H188.145L187.185 56.36H189.165ZM196.293 47H198.493V59H202.113V61H196.293V47ZM206.368 47H208.568V52.9L211.368 47L213.568 47L210.948 52.14L213.608 61H211.308L209.448 54.76L208.568 56.54V61H206.368V47ZM219.549 47H222.529L224.809 61H222.609L222.209 58.22V58.26H219.709L219.309 61H217.269L219.549 47ZM221.949 56.36L220.969 49.44H220.929L219.969 56.36H221.949ZM229.076 47H231.836L233.976 55.38H234.016V47H235.976V61H233.716L231.076 50.78H231.036V61H229.076V47Z" fill="#F6F6F6"/>
<path d="M58.1341 47.1597C56.2847 44.848 52.5859 39.6697 52.5859 37.4505C52.5859 34.6764 52.5859 30.5153 58.1341 29.1283C62.5725 28.0187 72.929 28.666 77.5525 29.1283C80.2109 29.8218 85.1118 32.4571 83.4473 37.4505C81.7829 42.4438 78.8239 46.0039 77.5525 47.1597" stroke="white" stroke-width="6" stroke-linecap="round"/>
<path d="M57.4411 49.2386L57.0943 49.5854L54.667 46.1178L57.7878 43.3438L60.9086 47.1581H74.7789L77.8997 43.3438L81.7141 46.1178L78.94 49.5854" stroke="white" stroke-width="3" stroke-linecap="square"/>
<path d="M3 52.707H132.687" stroke="white" stroke-width="6" stroke-linecap="round"/>
<mask id="path-5-inside-1_1996_12326" fill="white">
<path d="M30.0471 47.5055C30.0471 37.4813 34.0292 27.8676 41.1175 20.7793C48.2057 13.6911 57.8194 9.70899 67.8437 9.70898C77.8679 9.70898 87.4816 13.6911 94.5699 20.7793C101.658 27.8676 105.64 37.4813 105.64 47.5055L93.73 47.5055C93.73 40.6401 91.0027 34.0558 86.1481 29.2011C81.2934 24.3465 74.7091 21.6192 67.8437 21.6192C60.9782 21.6192 54.3939 24.3465 49.5393 29.2011C44.6847 34.0558 41.9574 40.6401 41.9574 47.5055H30.0471Z"/>
</mask>
<path d="M30.0471 47.5055C30.0471 37.4813 34.0292 27.8676 41.1175 20.7793C48.2057 13.6911 57.8194 9.70899 67.8437 9.70898C77.8679 9.70898 87.4816 13.6911 94.5699 20.7793C101.658 27.8676 105.64 37.4813 105.64 47.5055L93.73 47.5055C93.73 40.6401 91.0027 34.0558 86.1481 29.2011C81.2934 24.3465 74.7091 21.6192 67.8437 21.6192C60.9782 21.6192 54.3939 24.3465 49.5393 29.2011C44.6847 34.0558 41.9574 40.6401 41.9574 47.5055H30.0471Z" fill="white" stroke="white" stroke-width="2" mask="url(#path-5-inside-1_1996_12326)"/>
<path d="M67.5313 84.8018C59.8455 84.7374 52.3736 82.2999 46.1338 77.833L45.5342 77.3945C39.3575 72.7841 34.7658 66.3766 32.3818 59.0586L44.9258 59.0586C46.402 61.9818 47.0961 63.5839 47.9248 64.8066C48.697 65.9459 49.5942 66.7735 51.2852 68.0664L52.0605 68.6514C56.418 71.9038 61.67 73.7282 67.0967 73.8818L67.6221 73.8916C73.0595 73.9371 78.374 72.3016 82.8408 69.2158L83.2705 68.9131C85.5527 67.2684 86.6755 65.9549 87.5635 64.4121C87.9995 63.6545 88.3772 62.8451 88.8037 61.9404C89.2014 61.097 89.65 60.1576 90.2412 59.0596L103.212 59.1006C100.777 66.1788 96.1988 72.8234 90.2471 77.3223L89.6494 77.7637C83.414 82.2573 75.9477 84.7112 68.2744 84.7998L67.5313 84.8018Z" fill="white" stroke="white"/>
<path d="M69.8916 9.38281H65.7969L67.8438 1.89551L69.8916 9.38281Z" fill="white" stroke="white"/>
<path d="M95.9921 21.9756L93.1924 18.9875L100.056 15.3619L95.9921 21.9756Z" fill="white" stroke="white"/>
<path d="M42.3324 19.3404L39.3595 22.1562L35.6968 15.3126L42.3324 19.3404Z" fill="white" stroke="white"/>
<path d="M65.8096 85.6172L69.9043 85.6172L67.8574 93.1045L65.8096 85.6172Z" fill="white" stroke="white"/>
<path d="M39.7093 73.0244L42.509 76.0125L35.6457 79.6381L39.7093 73.0244Z" fill="white" stroke="white"/>
<path d="M93.3682 75.6596L96.3411 72.8438L100.004 79.6874L93.3682 75.6596Z" fill="white" stroke="white"/>
<path d="M24.499 40.0312C25.3301 40.0312 26.0191 40.6521 26.1211 41.46L26.1338 41.623L26.4248 52.707L26.1338 63.791C26.1105 64.6778 25.3852 65.3847 24.498 65.3848C23.6667 65.3848 22.9766 64.7641 22.874 63.9561L22.8613 63.792L22.5713 53.0537L22.8643 41.625C22.887 40.7386 23.6123 40.0314 24.499 40.0312Z" fill="white" stroke="white"/>
<path d="M19.6445 41.418C20.4771 41.4182 21.1686 42.0387 21.2734 42.8477L21.2861 43.0127L21.5703 52.708L21.2861 62.4033C21.2599 63.2911 20.5327 63.9968 19.6445 63.9971C18.8117 63.9971 18.1203 63.3766 18.0156 62.5674L18.002 62.4033L17.7168 52.708L18.002 43.0127C18.0281 42.1247 18.7561 41.418 19.6445 41.418Z" fill="white" stroke="white"/>
<path d="M15.1357 42.8047C15.7894 42.8047 16.3327 43.2908 16.417 43.9258L16.4277 44.0537L16.7158 52.707L16.4277 61.3604C16.4045 62.0571 15.8328 62.6104 15.1357 62.6104C14.4824 62.6101 13.9398 62.124 13.8555 61.4893L13.8447 61.3604L13.5557 52.707L13.8447 44.0537C13.8682 43.3574 14.439 42.8049 15.1357 42.8047Z" fill="white" stroke="white"/>
<rect x="11.8223" y="49.7402" width="1.08054" height="6.62866" rx="0.540272" fill="white" stroke="white"/>
<rect x="27.6202" y="49.587" width="0.693515" height="6.93515" rx="0.346757" fill="white" stroke="white" stroke-width="0.693515"/>
<path d="M111.188 65.3848C110.356 65.3848 109.667 64.7639 109.565 63.9561L109.553 63.793L109.262 52.709L109.553 41.625C109.576 40.7382 110.301 40.0314 111.188 40.0312C112.02 40.0312 112.71 40.6519 112.813 41.46L112.825 41.624L113.115 52.3623L112.822 63.791C112.8 64.6775 112.074 65.3846 111.188 65.3848Z" fill="white" stroke="white"/>
<path d="M116.042 63.998C115.209 63.9978 114.518 63.3773 114.413 62.5684L114.4 62.4033L114.116 52.708L114.4 43.0127C114.427 42.1249 115.154 41.4192 116.042 41.4189C116.875 41.4189 117.566 42.0394 117.671 42.8486L117.685 43.0127L117.97 52.708L117.685 62.4033C117.658 63.2913 116.93 63.998 116.042 63.998Z" fill="white" stroke="white"/>
<path d="M120.551 62.6113C119.897 62.6113 119.354 62.1252 119.27 61.4902L119.259 61.3623L118.971 52.709L119.259 44.0557C119.282 43.359 119.854 42.8057 120.551 42.8057C121.204 42.8059 121.747 43.292 121.831 43.9268L121.842 44.0557L122.131 52.709L121.842 61.3623C121.818 62.0586 121.248 62.6111 120.551 62.6113Z" fill="white" stroke="white"/>
<rect x="123.865" y="55.6758" width="1.08054" height="6.62866" rx="0.540272" transform="rotate(-180 123.865 55.6758)" fill="white" stroke="white"/>
<rect x="108.067" y="55.829" width="0.693515" height="6.93515" rx="0.346757" transform="rotate(-180 108.067 55.829)" fill="white" stroke="white" stroke-width="0.693515"/>
<path d="M68.1904 43.498C75.886 43.498 81.886 50.7473 81.9072 58.5605C81.3982 61.9084 79.9748 64.4202 78.6748 66.0977C78.0227 66.939 77.4033 67.5688 76.9492 67.9863C76.7223 68.195 76.537 68.3511 76.4102 68.4531C76.386 68.4725 76.3635 68.4894 76.3438 68.5049H60.0273C59.9915 68.4793 59.9477 68.4482 59.8975 68.4111C59.7339 68.2904 59.4979 68.1098 59.2139 67.873C58.6447 67.3988 57.8849 66.7026 57.127 65.8184C55.6045 64.0421 54.1271 61.554 54.127 58.6025C54.127 50.7901 60.4666 43.4983 68.1904 43.498Z" fill="white" stroke="white"/>
<mask id="path-24-inside-2_1996_12326" fill="white">
<path d="M73.2482 48.5892C73.179 48.5741 73.1112 48.5601 73.0449 48.5469C73.0449 48.5469 73.1127 48.5469 73.2482 48.5892C74.3867 48.8375 75.9184 49.3796 77.5528 51.6677C79.2866 54.095 79.0554 55.9444 79.2866 56.8691L77.5528 53.0547C77.5528 53.0547 76.5125 51.3209 75.1255 49.9339C74.172 48.9805 73.5463 48.6824 73.2482 48.5892Z"/>
</mask>
<path d="M73.2482 48.5892C73.179 48.5741 73.1112 48.5601 73.0449 48.5469C73.0449 48.5469 73.1127 48.5469 73.2482 48.5892C74.3867 48.8375 75.9184 49.3796 77.5528 51.6677C79.2866 54.095 79.0554 55.9444 79.2866 56.8691L77.5528 53.0547C77.5528 53.0547 76.5125 51.3209 75.1255 49.9339C74.172 48.9805 73.5463 48.6824 73.2482 48.5892Z" fill="white"/>
<path d="M73.0449 48.5469L73.0449 45.5469L72.4566 51.4886L73.0449 48.5469ZM77.5528 51.6677L75.1116 53.4114L75.1116 53.4114L77.5528 51.6677ZM79.2866 56.8691L76.5555 58.1105L82.197 56.1414L79.2866 56.8691ZM77.5528 53.0547L80.2839 51.8133L80.2132 51.6578L80.1252 51.5112L77.5528 53.0547ZM75.1255 49.9339L73.0041 52.0552L73.0041 52.0552L75.1255 49.9339ZM73.0449 48.5469L72.4566 51.4886C72.51 51.4993 72.5604 51.5097 72.609 51.5204L73.2482 48.5892L73.8874 45.6581C73.7976 45.6385 73.7124 45.621 73.6333 45.6051L73.0449 48.5469ZM73.2482 48.5892L72.609 51.5204C72.981 51.6015 73.2923 51.7014 73.6331 51.9128C73.9811 52.1287 74.4923 52.5445 75.1116 53.4114L77.5528 51.6677L79.994 49.924C78.9788 48.5028 77.9071 47.5035 76.796 46.8142C75.6777 46.1205 74.6539 45.8253 73.8874 45.6581L73.2482 48.5892ZM77.5528 51.6677L75.1116 53.4114C76.4117 55.2316 75.8898 55.6515 76.3761 57.5967L79.2866 56.8691L82.197 56.1414C82.2209 56.2373 82.1614 52.9584 79.994 49.924L77.5528 51.6677ZM79.2866 56.8691L82.0177 55.6276L80.2839 51.8133L77.5528 53.0547L74.8217 54.2961L76.5555 58.1105L79.2866 56.8691ZM77.5528 53.0547C80.1252 51.5112 80.1251 51.5109 80.1249 51.5106C80.1248 51.5105 80.1246 51.5102 80.1245 51.51C80.1242 51.5095 80.1239 51.509 80.1236 51.5085C80.123 51.5075 80.1224 51.5064 80.1216 51.5052C80.1202 51.5028 80.1184 51.4999 80.1164 51.4966C80.1125 51.49 80.1074 51.4818 80.1014 51.4719C80.0894 51.4522 80.0732 51.4259 80.0532 51.3937C80.0132 51.3293 79.9574 51.2408 79.8873 51.1324C79.7473 50.9161 79.548 50.6174 79.3005 50.2707C78.815 49.591 78.1006 48.6664 77.2468 47.8126L75.1255 49.9339L73.0041 52.0552C73.5373 52.5884 74.0367 53.2242 74.4181 53.7582C74.6039 54.0184 74.7514 54.2397 74.8498 54.3919C74.8989 54.4677 74.9352 54.5255 74.9575 54.5613C74.9686 54.5792 74.9762 54.5916 74.9801 54.5979C74.982 54.6011 74.983 54.6027 74.983 54.6028C74.9831 54.6028 74.9829 54.6025 74.9824 54.6017C74.9822 54.6013 74.9819 54.6008 74.9815 54.6003C74.9813 54.6 74.9812 54.5997 74.981 54.5993C74.9808 54.5991 74.9807 54.5989 74.9806 54.5988C74.9805 54.5985 74.9803 54.5982 77.5528 53.0547ZM75.1255 49.9339L77.2468 47.8126C76.0651 46.6309 75.0372 46.0053 74.1433 45.7259L73.2482 48.5892L72.3531 51.4526C72.0553 51.3595 72.279 51.33 73.0041 52.0552L75.1255 49.9339ZM73.2482 48.5892L74.1433 45.7259C73.9392 45.6621 73.7442 45.6171 73.559 45.5882C73.4666 45.5737 73.3774 45.5634 73.2914 45.5567C73.2484 45.5533 73.2063 45.5509 73.1652 45.5492C73.1447 45.5484 73.1244 45.5478 73.1043 45.5475C73.0943 45.5473 73.0843 45.5471 73.0744 45.547C73.0695 45.547 73.0645 45.5469 73.0596 45.5469C73.0572 45.5469 73.0547 45.5469 73.0523 45.5469C73.051 45.5469 73.0498 45.5469 73.0486 45.5469C73.048 45.5469 73.0471 45.5469 73.0468 45.5469C73.0458 45.5469 73.0449 45.5469 73.0449 48.5469C73.0449 51.5469 73.044 51.5469 73.0431 51.5469C73.0428 51.5469 73.0419 51.5469 73.0413 51.5469C73.04 51.5469 73.0388 51.5469 73.0376 51.5469C73.0352 51.5469 73.0327 51.5469 73.0303 51.5468C73.0255 51.5468 73.0206 51.5468 73.0158 51.5467C73.0062 51.5466 72.9966 51.5465 72.9871 51.5463C72.9681 51.5459 72.9494 51.5454 72.931 51.5447C72.8941 51.5432 72.8584 51.5411 72.8239 51.5384C72.7548 51.533 72.691 51.5253 72.6325 51.5162C72.5151 51.4978 72.4217 51.474 72.3531 51.4526L73.2482 48.5892Z" fill="white" mask="url(#path-24-inside-2_1996_12326)"/>
</svg>
