<svg width="136" height="127" viewBox="0 0 136 127" fill="none" xmlns="http://www.w3.org/2000/svg">
<path d="M58.1341 47.1597C56.2847 44.848 52.5859 39.6697 52.5859 37.4505C52.5859 34.6764 52.5859 30.5153 58.1341 29.1283C62.5725 28.0187 72.929 28.666 77.5525 29.1283C80.2109 29.8218 85.1118 32.4571 83.4473 37.4505C81.7829 42.4438 78.8239 46.0039 77.5525 47.1597" stroke="white" stroke-width="6" stroke-linecap="round"/>
<path d="M57.4411 49.2386L57.0943 49.5854L54.667 46.1178L57.7878 43.3438L60.9086 47.1581H74.7789L77.8997 43.3438L81.7141 46.1178L78.94 49.5854" stroke="white" stroke-width="3" stroke-linecap="square"/>
<path d="M3 52.707H132.687" stroke="white" stroke-width="6" stroke-linecap="round"/>
<mask id="path-4-inside-1_2276_6623" fill="white">
<path d="M30.0471 47.5055C30.0471 37.4813 34.0292 27.8676 41.1175 20.7793C48.2057 13.6911 57.8194 9.70899 67.8437 9.70898C77.8679 9.70898 87.4816 13.6911 94.5699 20.7793C101.658 27.8676 105.64 37.4813 105.64 47.5055L93.73 47.5055C93.73 40.6401 91.0027 34.0558 86.1481 29.2011C81.2934 24.3465 74.7091 21.6192 67.8437 21.6192C60.9782 21.6192 54.3939 24.3465 49.5393 29.2011C44.6847 34.0558 41.9574 40.6401 41.9574 47.5055H30.0471Z"/>
</mask>
<path d="M30.0471 47.5055C30.0471 37.4813 34.0292 27.8676 41.1175 20.7793C48.2057 13.6911 57.8194 9.70899 67.8437 9.70898C77.8679 9.70898 87.4816 13.6911 94.5699 20.7793C101.658 27.8676 105.64 37.4813 105.64 47.5055L93.73 47.5055C93.73 40.6401 91.0027 34.0558 86.1481 29.2011C81.2934 24.3465 74.7091 21.6192 67.8437 21.6192C60.9782 21.6192 54.3939 24.3465 49.5393 29.2011C44.6847 34.0558 41.9574 40.6401 41.9574 47.5055H30.0471Z" fill="white" stroke="white" stroke-width="2" mask="url(#path-4-inside-1_2276_6623)"/>
<path d="M67.5313 84.8018C59.5977 84.7353 51.8921 82.1402 45.5342 77.3945C39.3575 72.7841 34.7658 66.3766 32.3818 59.0586L44.9258 59.0586C46.402 61.9818 47.0961 63.5839 47.9248 64.8066C48.8073 66.1086 49.8533 67.0038 52.0605 68.6514C56.5585 72.0087 62.0096 73.8445 67.6221 73.8916C73.2348 73.9386 78.7168 72.1947 83.2705 68.9131C85.5527 67.2684 86.6755 65.9549 87.5635 64.4121C87.9995 63.6545 88.3772 62.8451 88.8037 61.9404C89.2014 61.097 89.65 60.1576 90.2412 59.0596L103.212 59.1006C100.696 66.414 95.8923 73.2646 89.6494 77.7637C83.2129 82.4022 75.4648 84.8682 67.5313 84.8018Z" fill="white" stroke="white"/>
<path d="M69.8916 9.38281H65.7969L67.8438 1.89551L69.8916 9.38281Z" fill="white" stroke="white"/>
<path d="M95.9921 21.9756L93.1924 18.9875L100.056 15.3619L95.9921 21.9756Z" fill="white" stroke="white"/>
<path d="M42.3324 19.3404L39.3595 22.1562L35.6968 15.3126L42.3324 19.3404Z" fill="white" stroke="white"/>
<path d="M65.8096 85.6172L69.9043 85.6172L67.8574 93.1045L65.8096 85.6172Z" fill="white" stroke="white"/>
<path d="M39.7093 73.0244L42.509 76.0125L35.6457 79.6381L39.7093 73.0244Z" fill="white" stroke="white"/>
<path d="M93.3682 75.6596L96.3411 72.8438L100.004 79.6874L93.3682 75.6596Z" fill="white" stroke="white"/>
<path d="M24.499 40.0312C25.3853 40.0312 26.1102 40.7372 26.1338 41.623L26.4248 52.707L26.1338 63.791C26.1105 64.6778 25.3852 65.3847 24.498 65.3848C23.6113 65.3848 22.8853 64.6784 22.8613 63.792L22.5713 53.0537L22.8643 41.625C22.887 40.7386 23.6123 40.0314 24.499 40.0312Z" fill="white" stroke="white"/>
<path d="M19.6445 41.418C20.5327 41.4182 21.26 42.1248 21.2861 43.0127L21.5703 52.708L21.2861 62.4033C21.2599 63.2911 20.5327 63.9968 19.6445 63.9971C18.7562 63.9971 18.0282 63.2912 18.002 62.4033L17.7168 52.708L18.002 43.0127C18.0281 42.1247 18.7561 41.418 19.6445 41.418Z" fill="white" stroke="white"/>
<path d="M15.1357 42.8047C15.8327 42.8047 16.4043 43.3572 16.4277 44.0537L16.7158 52.707L16.4277 61.3604C16.4045 62.0571 15.8328 62.6104 15.1357 62.6104C14.4389 62.6101 13.8679 62.0569 13.8447 61.3604L13.5557 52.707L13.8447 44.0537C13.8682 43.3574 14.439 42.8049 15.1357 42.8047Z" fill="white" stroke="white"/>
<rect x="11.8223" y="49.7402" width="1.08054" height="6.62866" rx="0.540272" fill="white" stroke="white"/>
<rect x="27.6202" y="49.587" width="0.693515" height="6.93515" rx="0.346757" fill="white" stroke="white" stroke-width="0.693515"/>
<path d="M111.188 65.3848C110.301 65.3848 109.576 64.6788 109.553 63.793L109.262 52.709L109.553 41.625C109.576 40.7382 110.301 40.0314 111.188 40.0312C112.075 40.0312 112.801 40.7376 112.825 41.624L113.115 52.3623L112.822 63.791C112.8 64.6775 112.074 65.3846 111.188 65.3848Z" fill="white" stroke="white"/>
<path d="M116.042 63.998C115.154 63.9978 114.427 63.2912 114.4 62.4033L114.116 52.708L114.4 43.0127C114.427 42.1249 115.154 41.4192 116.042 41.4189C116.93 41.4189 117.658 42.1248 117.685 43.0127L117.97 52.708L117.685 62.4033C117.658 63.2913 116.93 63.998 116.042 63.998Z" fill="white" stroke="white"/>
<path d="M120.551 62.6113C119.854 62.6113 119.282 62.0588 119.259 61.3623L118.971 52.709L119.259 44.0557C119.282 43.359 119.854 42.8057 120.551 42.8057C121.248 42.8059 121.819 43.3591 121.842 44.0557L122.131 52.709L121.842 61.3623C121.818 62.0586 121.248 62.6111 120.551 62.6113Z" fill="white" stroke="white"/>
<rect x="123.865" y="55.6758" width="1.08054" height="6.62866" rx="0.540272" transform="rotate(-180 123.865 55.6758)" fill="white" stroke="white"/>
<rect x="108.067" y="55.829" width="0.693515" height="6.93515" rx="0.346757" transform="rotate(-180 108.067 55.829)" fill="white" stroke="white" stroke-width="0.693515"/>
<path d="M68.1904 43.498C75.886 43.498 81.886 50.7473 81.9072 58.5605C81.3982 61.9084 79.9748 64.4202 78.6748 66.0977C78.0227 66.939 77.4033 67.5688 76.9492 67.9863C76.7223 68.195 76.537 68.3511 76.4102 68.4531C76.386 68.4725 76.3635 68.4894 76.3438 68.5049H60.0273C59.9915 68.4793 59.9477 68.4482 59.8975 68.4111C59.7339 68.2904 59.4979 68.1098 59.2139 67.873C58.6447 67.3988 57.8849 66.7026 57.127 65.8184C55.6045 64.0421 54.1271 61.554 54.127 58.6025C54.127 50.7901 60.4666 43.4983 68.1904 43.498Z" fill="white" stroke="white"/>
<mask id="path-23-inside-2_2276_6623" fill="white">
<path d="M73.2482 48.5892C73.179 48.5741 73.1112 48.5601 73.0449 48.5469C73.0449 48.5469 73.1127 48.5469 73.2482 48.5892C74.3867 48.8375 75.9184 49.3796 77.5528 51.6677C79.2866 54.095 79.0554 55.9444 79.2866 56.8691L77.5528 53.0547C77.5528 53.0547 76.5125 51.3209 75.1255 49.9339C74.172 48.9805 73.5463 48.6824 73.2482 48.5892Z"/>
</mask>
<path d="M73.2482 48.5892C73.179 48.5741 73.1112 48.5601 73.0449 48.5469C73.0449 48.5469 73.1127 48.5469 73.2482 48.5892C74.3867 48.8375 75.9184 49.3796 77.5528 51.6677C79.2866 54.095 79.0554 55.9444 79.2866 56.8691L77.5528 53.0547C77.5528 53.0547 76.5125 51.3209 75.1255 49.9339C74.172 48.9805 73.5463 48.6824 73.2482 48.5892Z" fill="white"/>
<path d="M73.0449 48.5469L73.0449 45.5469L72.4566 51.4886L73.0449 48.5469ZM77.5528 51.6677L75.1116 53.4114L75.1116 53.4114L77.5528 51.6677ZM79.2866 56.8691L76.5555 58.1105L82.197 56.1414L79.2866 56.8691ZM77.5528 53.0547L80.2839 51.8133L80.2132 51.6578L80.1252 51.5112L77.5528 53.0547ZM75.1255 49.9339L73.0041 52.0552L73.0041 52.0552L75.1255 49.9339ZM73.0449 48.5469L72.4566 51.4886C72.51 51.4993 72.5604 51.5097 72.609 51.5204L73.2482 48.5892L73.8874 45.6581C73.7976 45.6385 73.7124 45.621 73.6333 45.6051L73.0449 48.5469ZM73.2482 48.5892L72.609 51.5204C72.981 51.6015 73.2923 51.7014 73.6331 51.9128C73.9811 52.1287 74.4923 52.5445 75.1116 53.4114L77.5528 51.6677L79.994 49.924C78.9788 48.5028 77.9071 47.5035 76.796 46.8142C75.6777 46.1205 74.6539 45.8253 73.8874 45.6581L73.2482 48.5892ZM77.5528 51.6677L75.1116 53.4114C76.4117 55.2316 75.8898 55.6515 76.3761 57.5967L79.2866 56.8691L82.197 56.1414C82.2209 56.2373 82.1614 52.9584 79.994 49.924L77.5528 51.6677ZM79.2866 56.8691L82.0177 55.6276L80.2839 51.8133L77.5528 53.0547L74.8217 54.2961L76.5555 58.1105L79.2866 56.8691ZM77.5528 53.0547C80.1252 51.5112 80.1251 51.5109 80.1249 51.5106C80.1248 51.5105 80.1246 51.5102 80.1245 51.51C80.1242 51.5095 80.1239 51.509 80.1236 51.5085C80.123 51.5075 80.1224 51.5064 80.1216 51.5052C80.1202 51.5028 80.1184 51.4999 80.1164 51.4966C80.1125 51.49 80.1074 51.4818 80.1014 51.4719C80.0894 51.4522 80.0732 51.4259 80.0532 51.3937C80.0132 51.3293 79.9574 51.2408 79.8873 51.1324C79.7473 50.9161 79.548 50.6174 79.3005 50.2707C78.815 49.591 78.1006 48.6664 77.2468 47.8126L75.1255 49.9339L73.0041 52.0552C73.5373 52.5884 74.0367 53.2242 74.4181 53.7582C74.6039 54.0184 74.7514 54.2397 74.8498 54.3919C74.8989 54.4677 74.9352 54.5255 74.9575 54.5613C74.9686 54.5792 74.9762 54.5916 74.9801 54.5979C74.982 54.6011 74.983 54.6027 74.983 54.6028C74.9831 54.6028 74.9829 54.6025 74.9824 54.6017C74.9822 54.6013 74.9819 54.6008 74.9815 54.6003C74.9813 54.6 74.9812 54.5997 74.981 54.5993C74.9808 54.5991 74.9807 54.5989 74.9806 54.5988C74.9805 54.5985 74.9803 54.5982 77.5528 53.0547ZM75.1255 49.9339L77.2468 47.8126C76.0651 46.6309 75.0372 46.0053 74.1433 45.7259L73.2482 48.5892L72.3531 51.4526C72.0553 51.3595 72.279 51.33 73.0041 52.0552L75.1255 49.9339ZM73.2482 48.5892L74.1433 45.7259C73.9392 45.6621 73.7442 45.6171 73.559 45.5882C73.4666 45.5737 73.3774 45.5634 73.2914 45.5567C73.2484 45.5533 73.2063 45.5509 73.1652 45.5492C73.1447 45.5484 73.1244 45.5478 73.1043 45.5475C73.0943 45.5473 73.0843 45.5471 73.0744 45.547C73.0695 45.547 73.0645 45.5469 73.0596 45.5469C73.0572 45.5469 73.0547 45.5469 73.0523 45.5469C73.051 45.5469 73.0498 45.5469 73.0486 45.5469C73.048 45.5469 73.0471 45.5469 73.0468 45.5469C73.0458 45.5469 73.0449 45.5469 73.0449 48.5469C73.0449 51.5469 73.044 51.5469 73.0431 51.5469C73.0428 51.5469 73.0419 51.5469 73.0413 51.5469C73.04 51.5469 73.0388 51.5469 73.0376 51.5469C73.0352 51.5469 73.0327 51.5469 73.0303 51.5468C73.0255 51.5468 73.0206 51.5468 73.0158 51.5467C73.0062 51.5466 72.9966 51.5465 72.9871 51.5463C72.9681 51.5459 72.9494 51.5454 72.931 51.5447C72.8941 51.5432 72.8584 51.5411 72.8239 51.5384C72.7548 51.533 72.691 51.5253 72.6325 51.5162C72.5151 51.4978 72.4217 51.474 72.3531 51.4526L73.2482 48.5892Z" fill="white" mask="url(#path-23-inside-2_2276_6623)"/>
<path d="M25.68 121.2C24.6133 121.2 23.8067 120.9 23.26 120.3C22.7133 119.687 22.44 118.813 22.44 117.68V116.88H24.52V117.84C24.52 118.747 24.9 119.2 25.66 119.2C26.0333 119.2 26.3133 119.093 26.5 118.88C26.7 118.653 26.8 118.293 26.8 117.8C26.8 117.213 26.6667 116.7 26.4 116.26C26.1333 115.807 25.64 115.267 24.92 114.64C24.0133 113.84 23.38 113.12 23.02 112.48C22.66 111.827 22.48 111.093 22.48 110.28C22.48 109.173 22.76 108.32 23.32 107.72C23.88 107.107 24.6933 106.8 25.76 106.8C26.8133 106.8 27.6067 107.107 28.14 107.72C28.6867 108.32 28.96 109.187 28.96 110.32V110.9H26.88V110.18C26.88 109.7 26.7867 109.353 26.6 109.14C26.4133 108.913 26.14 108.8 25.78 108.8C25.0467 108.8 24.68 109.247 24.68 110.14C24.68 110.647 24.8133 111.12 25.08 111.56C25.36 112 25.86 112.533 26.58 113.16C27.5 113.96 28.1333 114.687 28.48 115.34C28.8267 115.993 29 116.76 29 117.64C29 118.787 28.7133 119.667 28.14 120.28C27.58 120.893 26.76 121.2 25.68 121.2ZM33.4614 107H36.7014C37.7947 107 38.6147 107.293 39.1614 107.88C39.7081 108.467 39.9814 109.327 39.9814 110.46V111.84C39.9814 112.973 39.7081 113.833 39.1614 114.42C38.6147 115.007 37.7947 115.3 36.7014 115.3H35.6614V121H33.4614V107ZM36.7014 113.3C37.0614 113.3 37.3281 113.2 37.5014 113C37.6881 112.8 37.7814 112.46 37.7814 111.98V110.32C37.7814 109.84 37.6881 109.5 37.5014 109.3C37.3281 109.1 37.0614 109 36.7014 109H35.6614V113.3H36.7014ZM50.7794 107H54.0994C55.2327 107 56.0594 107.267 56.5794 107.8C57.0994 108.32 57.3594 109.127 57.3594 110.22V110.78C57.3594 111.5 57.2394 112.087 56.9994 112.54C56.7727 112.993 56.4194 113.32 55.9394 113.52V113.56C57.0327 113.933 57.5794 114.907 57.5794 116.48V117.68C57.5794 118.76 57.2927 119.587 56.7194 120.16C56.1594 120.72 55.3327 121 54.2394 121H50.7794V107ZM53.8394 112.7C54.2794 112.7 54.606 112.587 54.8194 112.36C55.046 112.133 55.1594 111.753 55.1594 111.22V110.44C55.1594 109.933 55.066 109.567 54.8794 109.34C54.706 109.113 54.426 109 54.0394 109H52.9794V112.7H53.8394ZM54.2394 119C54.626 119 54.9127 118.9 55.0994 118.7C55.286 118.487 55.3794 118.127 55.3794 117.62V116.4C55.3794 115.76 55.266 115.32 55.0394 115.08C54.826 114.827 54.466 114.7 53.9594 114.7H52.9794V119H54.2394ZM63.7653 107H66.7453L69.0253 121H66.8253L66.4253 118.22V118.26H63.9253L63.5253 121H61.4853L63.7653 107ZM66.1653 116.36L65.1853 109.44H65.1453L64.1853 116.36H66.1653ZM73.2927 107H75.4927V119H79.1127V121H73.2927V107ZM83.3677 107H85.5677V112.9L88.3677 107H90.5677L87.9477 112.14L90.6077 121H88.3077L86.4477 114.76L85.5677 116.54V121H83.3677V107ZM96.5489 107H99.5289L101.809 121H99.6089L99.2089 118.22V118.26H96.7089L96.3089 121H94.2689L96.5489 107ZM98.9489 116.36L97.9689 109.44H97.9289L96.9689 116.36H98.9489ZM106.076 107H108.836L110.976 115.38H111.016V107H112.976V121H110.716L108.076 110.78H108.036V121H106.076V107Z" fill="#F6F6F6"/>
</svg>
