<svg width="147" height="115" viewBox="0 0 147 115" fill="none" xmlns="http://www.w3.org/2000/svg">
<path d="M70.7883 37.4539C69.3194 35.6179 66.3818 31.5053 66.3818 29.7427C66.3818 27.5395 66.3818 24.2347 70.7883 23.1331C74.3134 22.2518 82.5387 22.7659 86.2107 23.1331C88.3221 23.6839 92.2145 25.7769 90.8925 29.7427C89.5706 33.7085 87.2205 36.536 86.2107 37.4539" stroke="white" stroke-width="6" stroke-linecap="round"/>
<path d="M70.2379 39.1066L69.9625 39.382L68.0347 36.628L70.5133 34.4248L72.9919 37.4542H84.0079L86.4865 34.4248L89.516 36.628L87.3127 39.382" stroke="white" stroke-width="3" stroke-linecap="square"/>
<path d="M27 41.8613H130" stroke="white" stroke-width="6" stroke-linecap="round"/>
<mask id="path-4-inside-1_307_5809" fill="white">
<path d="M48.481 37.7297C48.481 29.7682 51.6436 22.1328 57.2732 16.5032C62.9028 10.8736 70.5382 7.71094 78.4997 7.71094C86.4611 7.71094 94.0965 10.8736 99.7261 16.5032C105.356 22.1328 108.518 29.7682 108.518 37.7296L99.0591 37.7296C99.0591 32.277 96.893 27.0476 93.0373 23.192C89.1817 19.3363 83.9524 17.1703 78.4997 17.1703C73.047 17.1703 67.8176 19.3363 63.962 23.192C60.1064 27.0476 57.9403 32.277 57.9403 37.7297H48.481Z"/>
</mask>
<path d="M48.481 37.7297C48.481 29.7682 51.6436 22.1328 57.2732 16.5032C62.9028 10.8736 70.5382 7.71094 78.4997 7.71094C86.4611 7.71094 94.0965 10.8736 99.7261 16.5032C105.356 22.1328 108.518 29.7682 108.518 37.7296L99.0591 37.7296C99.0591 32.277 96.893 27.0476 93.0373 23.192C89.1817 19.3363 83.9524 17.1703 78.4997 17.1703C73.047 17.1703 67.8176 19.3363 63.962 23.192C60.1064 27.0476 57.9403 32.277 57.9403 37.7297H48.481Z" fill="white" stroke="white" stroke-width="2" mask="url(#path-4-inside-1_307_5809)"/>
<path d="M96.348 47.0091L106.446 47.041C104.442 52.7803 100.659 58.1463 95.7583 61.6782C90.664 65.3495 84.5318 67.3006 78.2527 67.248C71.9736 67.1954 65.8749 65.1418 60.8428 61.3857C55.9921 57.765 52.3762 52.7441 50.4772 47.0081L60.2363 47.0081C60.5668 47.6635 60.848 48.2357 61.0965 48.7414C61.7116 49.9934 62.1266 50.8378 62.5948 51.5287C63.3063 52.5784 64.1496 53.298 65.9029 54.6067C69.4929 57.2864 73.8439 58.7514 78.3235 58.789C82.8032 58.8265 87.1781 57.4345 90.8125 54.8154C92.6351 53.5018 93.5376 52.4483 94.2512 51.2085C94.5823 50.6331 94.8708 50.0209 95.1885 49.3467C95.2055 49.3106 95.2226 49.2743 95.2398 49.2378C95.5489 48.5823 95.8944 47.855 96.348 47.0091Z" fill="white" stroke="white"/>
<path d="M77.0091 7.34893L78.5006 1.89541L79.992 7.34893H77.0091Z" fill="white" stroke="white"/>
<path d="M98.7999 15.1093L103.799 12.4689L100.839 17.286L98.7999 15.1093Z" fill="white" stroke="white"/>
<path d="M55.9041 17.4291L53.2367 12.4441L58.0698 15.3779L55.9041 17.4291Z" fill="white" stroke="white"/>
<path d="M80.0026 68.1013L78.5111 73.5548L77.0197 68.1013L80.0026 68.1013Z" fill="white" stroke="white"/>
<path d="M58.2118 60.3409L53.2124 62.9813L56.1723 58.1642L58.2118 60.3409Z" fill="white" stroke="white"/>
<path d="M101.107 58.0211L103.774 63.0061L98.941 60.0723L101.107 58.0211Z" fill="white" stroke="white"/>
<path d="M42.8798 33.0607C42.8965 32.4124 43.4268 31.8955 44.0753 31.8955C44.7236 31.8955 45.2538 32.4119 45.2708 33.0599L45.5024 41.8607L45.2708 50.6604C45.2538 51.309 44.723 51.826 44.0742 51.826C43.4257 51.826 42.8951 51.3095 42.8776 50.6613L42.6471 42.1358L42.8798 33.0607Z" fill="white" stroke="white"/>
<path d="M39.0181 34.1635C39.0372 33.5138 39.5694 32.9971 40.2193 32.9971C40.8692 32.9971 41.4014 33.5138 41.4205 34.1635L41.6469 41.8607L41.4205 49.5579C41.4014 50.2076 40.8692 50.7243 40.2193 50.7243C39.5694 50.7243 39.0372 50.2076 39.0181 49.558L38.7917 41.8607L39.0181 34.1635Z" fill="white" stroke="white"/>
<path d="M35.7156 34.9915C35.7322 34.4937 36.1406 34.0986 36.6387 34.0986C37.1369 34.0986 37.5453 34.4937 37.5619 34.9915L37.7909 41.8607L37.5619 48.7298C37.5453 49.2277 37.1369 49.6227 36.6387 49.6227C36.1406 49.6227 35.7322 49.2277 35.7156 48.7298L35.4866 41.8607L35.7156 34.9915Z" fill="white" stroke="white"/>
<rect x="34.023" y="39.5195" width="0.826203" height="5.23262" rx="0.413102" fill="white" stroke="white" stroke-width="0.826203"/>
<rect x="46.5542" y="39.3818" width="0.550802" height="5.50802" rx="0.275401" fill="white" stroke="white" stroke-width="0.550802"/>
<path d="M114.12 50.6609C114.103 51.3093 113.573 51.8262 112.924 51.8262C112.276 51.8262 111.746 51.3097 111.729 50.6617L111.497 41.8609L111.729 33.0613C111.746 32.4126 112.276 31.8957 112.925 31.8957C113.574 31.8957 114.104 32.4121 114.122 33.0604L114.352 41.5859L114.12 50.6609Z" fill="white" stroke="white"/>
<path d="M117.981 49.5582C117.962 50.2079 117.43 50.7246 116.78 50.7246C116.13 50.7246 115.598 50.2079 115.579 49.5582L115.353 41.861L115.579 34.1637C115.598 33.5141 116.13 32.9973 116.78 32.9973C117.43 32.9973 117.962 33.5141 117.981 34.1637L118.208 41.861L117.981 49.5582Z" fill="white" stroke="white"/>
<path d="M121.284 48.7301C121.267 49.228 120.859 49.623 120.361 49.623C119.863 49.623 119.454 49.228 119.438 48.7301L119.209 41.861L119.438 34.9919C119.454 34.494 119.863 34.099 120.361 34.099C120.859 34.099 121.267 34.494 121.284 34.9919L121.513 41.861L121.284 48.7301Z" fill="white" stroke="white"/>
<rect x="122.978" y="44.2021" width="0.826203" height="5.23262" rx="0.413102" transform="rotate(-180 122.978 44.2021)" fill="white" stroke="white" stroke-width="0.826203"/>
<rect x="110.446" y="44.3398" width="0.550802" height="5.50802" rx="0.275401" transform="rotate(-180 110.446 44.3398)" fill="white" stroke="white" stroke-width="0.550802"/>
<path d="M85.2394 54.2857C85.2313 54.2923 85.2235 54.2985 85.216 54.3045H85.2137H85.1996H85.1856H85.1716H85.1576H85.1436H85.1297H85.1158H85.102H85.0881H85.0743H85.0606H85.0469H85.0332H85.0195H85.0059H84.9923H84.9787H84.9652H84.9517H84.9382H84.9248H84.9113H84.898H84.8846H84.8713H84.858H84.8447H84.8315H84.8183H84.8051H84.7919H84.7788H84.7657H84.7527H84.7396H84.7266H84.7136H84.7007H84.6878H84.6749H84.662H84.6491H84.6363H84.6235H84.6108H84.598H84.5853H84.5726H84.56H84.5473H84.5347H84.5221H84.5096H84.497H84.4845H84.472H84.4595H84.4471H84.4347H84.4223H84.4099H84.3976H84.3853H84.373H84.3607H84.3484H84.3362H84.324H84.3118H84.2996H84.2875H84.2754H84.2633H84.2512H84.2391H84.2271H84.2151H84.2031H84.1911H84.1791H84.1672H84.1553H84.1434H84.1315H84.1196H84.1078H84.096H84.0842H84.0724H84.0606H84.0489H84.0371H84.0254H84.0137H84.0021H83.9904H83.9788H83.9671H83.9555H83.944H83.9324H83.9208H83.9093H83.8978H83.8862H83.8748H83.8633H83.8518H83.8404H83.8289H83.8175H83.8061H83.7947H83.7833H83.772H83.7606H83.7493H83.738H83.7267H83.7154H83.7041H83.6928H83.6816H83.6703H83.6591H83.6479H83.6367H83.6255H83.6143H83.6031H83.592H83.5808H83.5697H83.5586H83.5475H83.5364H83.5253H83.5142H83.5031H83.492H83.481H83.4699H83.4589H83.4479H83.4368H83.4258H83.4148H83.4038H83.3929H83.3819H83.3709H83.3599H83.349H83.338H83.3271H83.3162H83.3052H83.2943H83.2834H83.2725H83.2616H83.2507H83.2398H83.2289H83.2181H83.2072H83.1963H83.1854H83.1746H83.1637H83.1529H83.142H83.1312H83.1204H83.1095H83.0987H83.0879H83.077H83.0662H83.0554H83.0446H83.0338H83.023H83.0121H83.0013H82.9905H82.9797H82.9689H82.9581H82.9473H82.9365H82.9257H82.9149H82.9041H82.8933H82.8825H82.8717H82.8609H82.8501H82.8393H82.8285H82.8177H82.8069H82.7961H82.7853H82.7745H82.7637H82.7529H82.7421H82.7312H82.7204H82.7096H82.6988H82.688H82.6771H82.6663H82.6554H82.6446H82.6338H82.6229H82.6121H82.6012H82.5903H82.5795H82.5686H82.5577H82.5468H82.5359H82.525H82.5141H82.5032H82.4923H82.4814H82.4705H82.4595H82.4486H82.4376H82.4267H82.4157H82.4047H82.3938H82.3828H82.3718H82.3608H82.3498H82.3387H82.3277H82.3167H82.3056H82.2946H82.2835H82.2724H82.2613H82.2502H82.2391H82.228H82.2169H82.2057H82.1946H82.1834H82.1722H82.1611H82.1499H82.1387H82.1274H82.1162H82.105H82.0937H82.0824H82.0711H82.0599H82.0485H82.0372H82.0259H82.0145H82.0032H81.9918H81.9804H81.969H81.9576H81.9461H81.9347H81.9232H81.9117H81.9002H81.8887H81.8772H81.8657H81.8541H81.8425H81.8309H81.8193H81.8077H81.796H81.7844H81.7727H81.761H81.7493H81.7376H81.7258H81.714H81.7022H81.6904H81.6786H81.6668H81.6549H81.643H81.6311H81.6192H81.6073H81.5953H81.5833H81.5713H81.5593H81.5472H81.5352H81.5231H81.511H81.4989H81.4867H81.4745H81.4623H81.4501H81.4379H81.4256H81.4133H81.401H81.3887H81.3764H81.364H81.3516H81.3392H81.3267H81.3142H81.3018H81.2892H81.2767H81.2641H81.2515H81.2389H81.2263H81.2136H81.2009H81.1882H81.1754H81.1627H81.1499H81.137H81.1242H81.1113H81.0984H81.0855H81.0725H81.0595H81.0465H81.0335H81.0204H81.0073H80.9942H80.981H80.9678H80.9546H80.9414H80.9281H80.9148H80.9015H80.8881H80.8747H80.8613H80.8478H80.8343H80.8208H80.8073H80.7937H80.7801H80.7665H80.7528H80.7391H80.7254H80.7116H80.6978H80.684H80.6701H80.6562H80.6423H80.6283H80.6143H80.6003H80.5863H80.5722H80.558H80.5439H80.5297H80.5154H80.5012H80.4869H80.4725H80.4582H80.4438H80.4293H80.4148H80.4003H80.3858H80.3712H80.3566H80.3419H80.3272H80.3125H80.2977H80.2829H80.2681H80.2532H80.2383H80.2233H80.2083H80.1933H80.1782H80.1631H80.1479H80.1327H80.1175H80.1023H80.0869H80.0716H80.0562H80.0408H80.0253H80.0098H79.9943H79.9787H79.963H79.9474H79.9317H79.9159H79.9001H79.8843H79.8684H79.8525H79.8365H79.8205H79.8045H79.7884H79.7722H79.7561H79.7398H79.7236H79.7073H79.6909H79.6745H79.6581H79.6416H79.6251H79.6085H79.5919H79.5752H79.5585H79.5417H79.5249H79.5081H79.4912H79.4743H79.4573H79.4402H79.4232H79.406H79.3889H79.3717H79.3544H79.3371H79.3197H79.3023H79.2848H79.2673H79.2498H79.2322H79.2145H79.1968H79.1791H79.1613H79.1434H79.1255H79.1076H79.0896H79.0716H79.0535H79.0353H79.0171H78.9989H78.9806H78.9622H78.9438H78.9253H78.9068H78.8883H78.8697H78.851H78.8323H78.8135H78.7947H78.7758H78.7557H78.7356H78.7156H78.6956H78.6757H78.6559H78.6361H78.6164H78.5968H78.5772H78.5577H78.5382H78.5188H78.4995H78.4802H78.461H78.4418H78.4227H78.4036H78.3847H78.3657H78.3469H78.3281H78.3093H78.2906H78.272H78.2534H78.2349H78.2164H78.198H78.1797H78.1614H78.1432H78.125H78.1069H78.0888H78.0708H78.0528H78.0349H78.0171H77.9993H77.9816H77.9639H77.9463H77.9287H77.9112H77.8937H77.8763H77.859H77.8417H77.8244H77.8072H77.7901H77.773H77.7559H77.739H77.722H77.7051H77.6883H77.6715H77.6548H77.6381H77.6215H77.6049H77.5884H77.5719H77.5555H77.5391H77.5227H77.5065H77.4902H77.474H77.4579H77.4418H77.4258H77.4098H77.3938H77.3779H77.3621H77.3463H77.3305H77.3148H77.2992H77.2835H77.268H77.2524H77.237H77.2215H77.2061H77.1908H77.1755H77.1602H77.145H77.1299H77.1147H77.0997H77.0846H77.0696H77.0547H77.0398H77.0249H77.0101H76.9953H76.9806H76.9659H76.9512H76.9366H76.922H76.9075H76.893H76.8786H76.8642H76.8498H76.8355H76.8212H76.8069H76.7927H76.7786H76.7644H76.7504H76.7363H76.7223H76.7083H76.6944H76.6805H76.6666H76.6528H76.639H76.6253H76.6115H76.5979H76.5842H76.5706H76.5571H76.5435H76.53H76.5166H76.5032H76.4898H76.4764H76.4631H76.4498H76.4366H76.4233H76.4102H76.397H76.3839H76.3708H76.3577H76.3447H76.3317H76.3188H76.3059H76.293H76.2801H76.2673H76.2545H76.2417H76.229H76.2163H76.2036H76.191H76.1784H76.1658H76.1533H76.1407H76.1282H76.1158H76.1034H76.0909H76.0786H76.0662H76.0539H76.0416H76.0293H76.0171H76.0049H75.9927H75.9806H75.9684H75.9563H75.9443H75.9322H75.9202H75.9082H75.8962H75.8843H75.8723H75.8604H75.8486H75.8367H75.8249H75.8131H75.8013H75.7896H75.7778H75.7661H75.7544H75.7428H75.7312H75.7195H75.7079H75.6964H75.6848H75.6733H75.6618H75.6503H75.6388H75.6274H75.616H75.6046H75.5932H75.5818H75.5705H75.5592H75.5479H75.5366H75.5253H75.5141H75.5028H75.4916H75.4804H75.4693H75.4581H75.447H75.4358H75.4247H75.4137H75.4026H75.3915H75.3805H75.3695H75.3585H75.3475H75.3365H75.3255H75.3146H75.3037H75.2928H75.2819H75.271H75.2601H75.2492H75.2384H75.2276H75.2168H75.206H75.1952H75.1844H75.1736H75.1629H75.1521H75.1414H75.1307H75.12H75.1093H75.0986H75.0879H75.0773H75.0666H75.056H75.0453H75.0347H75.0241H75.0135H75.0029H74.9923H74.9817H74.9712H74.9606H74.9501H74.9395H74.929H74.9185H74.9079H74.8974H74.8869H74.8764H74.8659H74.8554H74.845H74.8345H74.824H74.8136H74.8031H74.7926H74.7822H74.7718H74.7613H74.7509H74.7405H74.73H74.7196H74.7092H74.6988H74.6884H74.678H74.6675H74.6571H74.6467H74.6363H74.6259H74.6155H74.6052H74.5948H74.5844H74.574H74.5636H74.5532H74.5428H74.5324H74.522H74.5116H74.5012H74.4909H74.4805H74.4701H74.4597H74.4493H74.4389H74.4285H74.4181H74.4077H74.3973H74.3869H74.3764H74.366H74.3556H74.3452H74.3348H74.3243H74.3139H74.3034H74.293H74.2826H74.2721H74.2616H74.2512H74.2407H74.2302H74.2197H74.2093H74.1988H74.1883H74.1778H74.1672H74.1567H74.1462H74.1356H74.1251H74.1145H74.104H74.0934H74.0828H74.0722H74.0616H74.051H74.0404H74.0298H74.0192H74.0085H73.9979H73.9872H73.9765H73.9658H73.9551H73.9444H73.9337H73.923H73.9122H73.9015H73.8907H73.8799H73.8691H73.8583H73.8475H73.8366H73.8258H73.8149H73.8041H73.7932H73.7823H73.7713H73.7604H73.7495H73.7385H73.7275H73.7165H73.7055H73.6945H73.6834H73.6724H73.6613H73.6502H73.6391H73.628H73.6168H73.6057H73.5945H73.5833H73.5721H73.5608H73.5496H73.5383H73.527H73.5157H73.5044H73.493H73.4817H73.4703H73.4589H73.4474H73.436H73.4245H73.413H73.4015H73.39H73.3784H73.3668H73.3552H73.3436H73.332H73.3203H73.3086H73.2969H73.2852H73.2734H73.2616H73.2498H73.238H73.2261H73.2142H73.2023H73.1904H73.1784H73.1665H73.1544H73.1424H73.1304H73.1183H73.1062H73.094H73.0819H73.0697H73.0574H73.0452H73.0329H73.0206H73.0083H72.9959H72.9835H72.9711H72.9587H72.9462H72.9337H72.9212H72.9086H72.896H72.8834H72.8707H72.8581H72.8454H72.8326H72.8198H72.807H72.7942H72.7813H72.7684H72.7555H72.7425H72.7295H72.7165H72.7034H72.6903H72.6772H72.6641H72.6509H72.6376H72.6244H72.6111H72.5977H72.5844H72.571H72.5575H72.5441H72.5305H72.517H72.5034H72.4898H72.4762H72.4625H72.4487H72.435H72.4212H72.4073H72.3935H72.3796H72.3656H72.3516H72.3376H72.3241C72.3021 54.2887 72.2774 54.2707 72.2501 54.2505C72.1216 54.1557 71.9358 54.0132 71.7117 53.8265C71.263 53.4526 70.6646 52.904 70.0672 52.207C68.8657 50.8053 67.709 48.8521 67.709 46.5425C67.709 40.3851 72.707 34.6494 78.7758 34.6494C84.8177 34.6494 89.5482 40.3456 89.5672 46.5052C89.1647 49.1374 88.0443 51.1127 87.0213 52.4327C86.5075 53.0957 86.0194 53.5917 85.6624 53.9201C85.4839 54.0841 85.3385 54.206 85.2394 54.2857Z" fill="white" stroke="white"/>
<mask id="path-23-inside-2_307_5809" fill="white">
<path d="M82.7923 38.5893C82.7373 38.5773 82.6835 38.5662 82.6309 38.5557C82.6309 38.5557 82.6847 38.5557 82.7923 38.5893C83.6965 38.7865 84.913 39.217 86.2111 41.0343C87.5881 42.9621 87.4045 44.4309 87.5881 45.1653L86.2111 42.1359C86.2111 42.1359 85.3849 40.7589 84.2833 39.6573C83.526 38.9 83.029 38.6633 82.7923 38.5893Z"/>
</mask>
<path d="M82.7923 38.5893C82.7373 38.5773 82.6835 38.5662 82.6309 38.5557C82.6309 38.5557 82.6847 38.5557 82.7923 38.5893C83.6965 38.7865 84.913 39.217 86.2111 41.0343C87.5881 42.9621 87.4045 44.4309 87.5881 45.1653L86.2111 42.1359C86.2111 42.1359 85.3849 40.7589 84.2833 39.6573C83.526 38.9 83.029 38.6633 82.7923 38.5893Z" fill="white"/>
<path d="M82.6309 38.5557L82.6309 35.5557L82.0425 41.4974L82.6309 38.5557ZM86.2111 41.0343L83.7699 42.778V42.778L86.2111 41.0343ZM87.5881 45.1653L84.857 46.4067L90.4985 44.4377L87.5881 45.1653ZM86.2111 42.1359L88.9422 40.8945L88.8715 40.7389L88.7836 40.5924L86.2111 42.1359ZM84.2833 39.6573L82.1619 41.7786L82.1619 41.7786L84.2833 39.6573ZM82.0425 41.4974C82.0823 41.5054 82.1187 41.5129 82.1531 41.5204L83.4315 35.6582C83.3559 35.6417 83.2847 35.627 83.2192 35.6139L82.0425 41.4974ZM82.1531 41.5204C82.408 41.576 82.5819 41.6353 82.7725 41.7536C82.9704 41.8763 83.3188 42.1465 83.7699 42.778L88.6523 39.2906C87.8053 38.1048 86.8964 37.2511 85.9355 36.655C84.9673 36.0544 84.0809 35.7998 83.4315 35.6582L82.1531 41.5204ZM83.7699 42.778C84.1917 43.3685 84.3392 43.8265 84.413 44.1726C84.4549 44.3691 84.4792 44.5584 84.5075 44.8124C84.5257 44.9767 84.57 45.4623 84.6777 45.8929L90.4985 44.4377C90.57 44.7238 90.4629 41.8255 88.6523 39.2906L83.7699 42.778ZM90.3192 43.9239L88.9422 40.8945L83.48 43.3773L84.857 46.4067L90.3192 43.9239ZM86.2111 42.1359C88.7836 40.5924 88.7834 40.5921 88.7832 40.5918C88.7831 40.5917 88.7829 40.5914 88.7828 40.5911C88.7825 40.5907 88.7823 40.5902 88.782 40.5898C88.7814 40.5888 88.7808 40.5878 88.7801 40.5866C88.7787 40.5844 88.7771 40.5817 88.7754 40.5788C88.7718 40.5729 88.7674 40.5657 88.7622 40.5571C88.7518 40.5401 88.7381 40.5178 88.7213 40.4908C88.6877 40.4367 88.6414 40.3632 88.5835 40.2738C88.4681 40.0954 88.3045 39.8502 88.1015 39.566C87.7052 39.0111 87.1157 38.2471 86.4046 37.5359L82.1619 41.7786C82.5524 42.169 82.9269 42.6443 83.2191 43.0534C83.3603 43.2511 83.4721 43.419 83.5461 43.5333C83.5828 43.5901 83.6097 43.6328 83.6256 43.6584C83.6335 43.6711 83.6386 43.6795 83.6409 43.6831C83.642 43.685 83.6423 43.6856 83.642 43.685C83.6418 43.6847 83.6414 43.6841 83.6409 43.6831C83.6406 43.6827 83.6402 43.6821 83.6399 43.6815C83.6397 43.6812 83.6395 43.6808 83.6393 43.6805C83.6392 43.6803 83.639 43.68 83.6389 43.6799C83.6388 43.6797 83.6386 43.6794 86.2111 42.1359ZM86.4046 37.5359C85.4191 36.5504 84.52 35.9862 83.6874 35.726L81.8972 41.4527C81.5381 41.3404 81.633 41.2496 82.1619 41.7786L86.4046 37.5359ZM83.6874 35.726C83.4973 35.6665 83.3127 35.6237 83.1345 35.5959C83.0456 35.582 82.9589 35.5719 82.8747 35.5653C82.8326 35.562 82.7912 35.5596 82.7505 35.558C82.7302 35.5572 82.71 35.5566 82.6901 35.5562C82.6801 35.556 82.6702 35.5559 82.6603 35.5558C82.6554 35.5558 82.6505 35.5557 82.6456 35.5557C82.6431 35.5557 82.6406 35.5557 82.6382 35.5557C82.637 35.5557 82.6357 35.5557 82.6345 35.5557C82.6339 35.5557 82.633 35.5557 82.6327 35.5557C82.6318 35.5557 82.6309 35.5557 82.6309 38.5557C82.6309 41.5557 82.6299 41.5557 82.629 41.5557C82.6287 41.5557 82.6278 41.5557 82.6272 41.5557C82.626 41.5557 82.6248 41.5557 82.6235 41.5557C82.6211 41.5556 82.6187 41.5556 82.6162 41.5556C82.6114 41.5556 82.6065 41.5556 82.6017 41.5555C82.592 41.5554 82.5824 41.5553 82.5729 41.5551C82.5538 41.5547 82.5349 41.5542 82.5162 41.5534C82.4789 41.552 82.4426 41.5498 82.4072 41.5471C82.3364 41.5415 82.2699 41.5336 82.208 41.5239C82.0836 41.5044 81.9797 41.4785 81.8972 41.4527L83.6874 35.726Z" fill="white" mask="url(#path-23-inside-2_307_5809)"/>
<path d="M5.888 106.32C4.18133 106.32 2.89067 105.84 2.016 104.88C1.14133 103.899 0.704 102.501 0.704 100.688L0.704 99.408H4.032V100.944C4.032 102.395 4.64 103.12 5.856 103.12C6.45333 103.12 6.90133 102.949 7.2 102.608C7.52 102.245 7.68 101.669 7.68 100.88C7.68 99.9413 7.46667 99.12 7.04 98.416C6.61333 97.6907 5.824 96.8267 4.672 95.824C3.22133 94.544 2.208 93.392 1.632 92.368C1.056 91.3227 0.768 90.1493 0.768 88.848C0.768 87.0773 1.216 85.712 2.112 84.752C3.008 83.7707 4.30933 83.28 6.016 83.28C7.70133 83.28 8.97067 83.7707 9.824 84.752C10.6987 85.712 11.136 87.0987 11.136 88.912V89.84H7.808V88.688C7.808 87.92 7.65867 87.3653 7.36 87.024C7.06133 86.6613 6.624 86.48 6.048 86.48C4.87467 86.48 4.288 87.1947 4.288 88.624C4.288 89.4347 4.50133 90.192 4.928 90.896C5.376 91.6 6.176 92.4533 7.328 93.456C8.8 94.736 9.81333 95.8987 10.368 96.944C10.9227 97.9893 11.2 99.216 11.2 100.624C11.2 102.459 10.7413 103.867 9.824 104.848C8.928 105.829 7.616 106.32 5.888 106.32ZM18.3382 83.6H23.5222C25.2716 83.6 26.5836 84.0693 27.4582 85.008C28.3329 85.9467 28.7702 87.3227 28.7702 89.136V91.344C28.7702 93.1573 28.3329 94.5333 27.4582 95.472C26.5836 96.4107 25.2716 96.88 23.5222 96.88H21.8582V106H18.3382V83.6ZM23.5222 93.68C24.0982 93.68 24.5249 93.52 24.8022 93.2C25.1009 92.88 25.2502 92.336 25.2502 91.568V88.912C25.2502 88.144 25.1009 87.6 24.8022 87.28C24.5249 86.96 24.0982 86.8 23.5222 86.8H21.8582V93.68H23.5222ZM46.047 83.6H51.359C53.1723 83.6 54.495 84.0267 55.327 84.88C56.159 85.712 56.575 87.0027 56.575 88.752V89.648C56.575 90.8 56.383 91.7387 55.999 92.464C55.6363 93.1893 55.071 93.712 54.303 94.032V94.096C56.0523 94.6933 56.927 96.2507 56.927 98.768V100.688C56.927 102.416 56.4683 103.739 55.551 104.656C54.655 105.552 53.3323 106 51.583 106H46.047V83.6ZM50.943 92.72C51.647 92.72 52.1697 92.5387 52.511 92.176C52.8737 91.8133 53.055 91.2053 53.055 90.352V89.104C53.055 88.2933 52.9057 87.7067 52.607 87.344C52.3297 86.9813 51.8817 86.8 51.263 86.8H49.567V92.72H50.943ZM51.583 102.8C52.2017 102.8 52.6603 102.64 52.959 102.32C53.2577 101.979 53.407 101.403 53.407 100.592V98.64C53.407 97.616 53.2257 96.912 52.863 96.528C52.5217 96.1227 51.9457 95.92 51.135 95.92H49.567V102.8H51.583ZM66.8245 83.6H71.5925L75.2405 106H71.7205L71.0805 101.552V101.616H67.0805L66.4405 106H63.1765L66.8245 83.6ZM70.6645 98.576L69.0965 87.504H69.0325L67.4965 98.576H70.6645ZM82.0682 83.6H85.5882V102.8H91.3802V106H82.0682V83.6ZM98.1883 83.6H101.708V93.04L106.188 83.6H109.708L105.516 91.824L109.772 106H106.092L103.116 96.016L101.708 98.864V106H98.1883V83.6ZM119.278 83.6H124.046L127.694 106H124.174L123.534 101.552V101.616H119.534L118.894 106H115.63L119.278 83.6ZM123.118 98.576L121.55 87.504H121.486L119.95 98.576H123.118ZM134.522 83.6L138.938 83.6L142.362 97.008H142.426V83.6H145.562V106H141.946L137.722 89.648H137.658V106H134.522V83.6Z" fill="#F6F6F6"/>
</svg>
