<svg width="26" height="23" viewBox="0 0 26 23" fill="none" xmlns="http://www.w3.org/2000/svg">
<path d="M1.3335 21.3333H3.66683M3.66683 21.3333H15.3335M3.66683 21.3333V5.23356C3.66683 3.92677 3.66683 3.27289 3.92115 2.77376C4.14485 2.33472 4.50155 1.97802 4.94059 1.75432C5.43972 1.5 6.0936 1.5 7.40039 1.5H11.6004C12.9072 1.5 13.5597 1.5 14.0588 1.75432C14.4978 1.97802 14.8557 2.33472 15.0794 2.77376C15.3335 3.2724 15.3335 3.92549 15.3335 5.22973V12M15.3335 21.3333H22.3335M15.3335 21.3333V12M22.3335 21.3333H24.6668M22.3335 21.3333V12C22.3335 10.9128 22.3334 10.3695 22.1558 9.94067C21.9189 9.36894 21.4651 8.91443 20.8934 8.67761C20.4646 8.5 19.9204 8.5 18.8332 8.5C17.746 8.5 17.2024 8.5 16.7736 8.67761C16.2019 8.91443 15.7479 9.36894 15.5111 9.94067C15.3335 10.3695 15.3335 10.9128 15.3335 12M7.16683 9.66667H11.8335M7.16683 6.16667H11.8335" stroke="#5856D6" stroke-width="2" stroke-linecap="round" stroke-linejoin="round"/>
</svg>
