<svg width="24" height="24" viewBox="0 0 24 24" fill="none" xmlns="http://www.w3.org/2000/svg">
<path d="M8.5 21.3333C8.5 21.9777 9.02233 22.5 9.66667 22.5H14.3333C14.9777 22.5 15.5 21.9777 15.5 21.3333V15.5L21.3333 15.5C21.9777 15.5 22.5 14.9777 22.5 14.3333V9.66667C22.5 9.02233 21.9777 8.5 21.3333 8.5H15.5L15.5 2.66667C15.5 2.02233 14.9777 1.5 14.3333 1.5H9.66667C9.02233 1.5 8.5 2.02233 8.5 2.66667V8.5H2.66667C2.02234 8.5 1.5 9.02233 1.5 9.66667V14.3333C1.5 14.9777 2.02234 15.5 2.66667 15.5H8.5V21.3333Z" stroke="#5856D6" stroke-width="2" stroke-linecap="round" stroke-linejoin="round"/>
</svg>
