<svg viewBox="0 0 29 30">
<path d="M1 1.5H1.40252C2.11319 1.5 2.46915 1.5 2.759 1.62822C3.01456 1.74126 3.23306 1.92326 3.39062 2.15405C3.56904 2.41538 3.63346 2.76435 3.76206 3.46091L7.00006 21.0001L22.6327 21C23.3125 21 23.6535 21 23.935 20.8799C24.1838 20.7738 24.3983 20.6019 24.5576 20.3834C24.7378 20.1363 24.8141 19.8055 24.9666 19.1446L24.9678 19.1399L27.3216 8.93994L27.3221 8.9378C27.5535 7.93523 27.6694 7.43273 27.5421 7.03857C27.4304 6.69273 27.1953 6.39951 26.8834 6.21288C26.5277 6 26.0137 6 24.9831 6H4.75M23.5 28.5C22.6716 28.5 22 27.8284 22 27C22 26.1716 22.6716 25.5 23.5 25.5C24.3284 25.5 25 26.1716 25 27C25 27.8284 24.3284 28.5 23.5 28.5ZM8.5 28.5C7.67157 28.5 7 27.8284 7 27C7 26.1716 7.67157 25.5 8.5 25.5C9.32843 25.5 10 26.1716 10 27C10 27.8284 9.32843 28.5 8.5 28.5Z" stroke="#F2F2F7" stroke-width="2" stroke-linecap="round" stroke-linejoin="round"/>
</svg>
