<svg width="51" height="51" viewBox="0 0 51 51" fill="none" xmlns="http://www.w3.org/2000/svg">
<path d="M0 25.5C0 11.4167 11.4167 0 25.5 0C39.5833 0 51 11.4167 51 25.5C51 39.5833 39.5833 51 25.5 51C11.4167 51 0 39.5833 0 25.5Z" fill="#28A745"/>
<path d="M18.275 47.8125L14.2375 41.0125L6.5875 39.3125L7.33125 31.45L2.125 25.5L7.33125 19.55L6.5875 11.6875L14.2375 9.9875L18.275 3.1875L25.5 6.26875L32.725 3.1875L36.7625 9.9875L44.4125 11.6875L43.6688 19.55L48.875 25.5L43.6688 31.45L44.4125 39.3125L36.7625 41.0125L32.725 47.8125L25.5 44.7313L18.275 47.8125ZM20.0813 42.3937L25.5 40.0563L31.025 42.3937L34 37.2938L39.8438 35.9125L39.3125 29.9625L43.2438 25.5L39.3125 20.9312L39.8438 14.9813L34 13.7063L30.9188 8.60625L25.5 10.9438L19.975 8.60625L17 13.7063L11.1562 14.9813L11.6875 20.9312L7.75625 25.5L11.6875 29.9625L11.1562 36.0187L17 37.2938L20.0813 42.3937ZM23.2688 33.0438L35.275 21.0375L32.3 17.9563L23.2688 26.9875L18.7 22.525L15.725 25.5L23.2688 33.0438Z" fill="white"/>
</svg>
