<svg width="18" height="16" viewBox="0 0 18 16" fill="none" xmlns="http://www.w3.org/2000/svg">
<path d="M9.44856 12.9111L9.44851 12.9111C9.16954 12.755 8.83095 12.7562 8.55355 12.9115L4.31398 15.284L5.26053 10.5199C5.32244 10.2083 5.21911 9.88529 4.98421 9.66806C4.98421 9.66806 4.9842 9.66805 4.9842 9.66805L1.4179 6.36979L6.24149 5.79766C6.2415 5.79765 6.2415 5.79765 6.24151 5.79765C6.5571 5.76023 6.8323 5.56192 6.96624 5.27154L9.00083 0.860608L11.0354 5.27145C11.1686 5.56015 11.4419 5.76017 11.7593 5.7978L16.583 6.36977L13.017 9.66808C12.7825 9.8849 12.6785 10.2074 12.7405 10.5195C12.7405 10.5196 12.7405 10.5196 12.7405 10.5196L13.687 15.2843L9.44856 12.9111ZM4.15698 15.3719C4.15703 15.3719 4.15708 15.3718 4.15713 15.3718L4.15702 15.3719L4.15698 15.3719ZM4.27884 15.4609C4.27884 15.4609 4.27883 15.4609 4.27883 15.461L4.27884 15.4609ZM1.23851 6.39106L1.23853 6.39106L1.23851 6.39106ZM9.07642 0.696719C9.0764 0.696762 9.07639 0.696805 9.07637 0.696848L9.07642 0.696721L9.00075 0.661813L9.07642 0.696719ZM16.7154 6.24726L16.7154 6.24729L16.7154 6.24726ZM13.7221 15.461C13.7221 15.4609 13.7221 15.4609 13.7221 15.4609L13.7221 15.461L13.7221 15.461Z" stroke="#FFCC00" stroke-linecap="round" stroke-linejoin="round"/>
</svg>
