<svg width="18" height="16" viewBox="0 0 18 16" fill="none" xmlns="http://www.w3.org/2000/svg">
<mask id="path-1-inside-1_549_2343" fill="white">
<path d="M0.945801 6.61422C0.684759 6.37282 0.826557 5.93641 1.17964 5.89454L6.18262 5.30113C6.32652 5.28407 6.45151 5.19371 6.51221 5.06212L8.6224 0.487296C8.77132 0.164432 9.23031 0.16437 9.37923 0.487234L11.4894 5.06202C11.5501 5.19361 11.6743 5.28422 11.8182 5.30128L16.8215 5.89454C17.1745 5.93641 17.3159 6.37295 17.0549 6.61435L13.3565 10.0352C13.2501 10.1336 13.2027 10.28 13.231 10.4221L14.2125 15.3635C14.2818 15.7123 13.9107 15.9825 13.6004 15.8088L9.20429 13.3474C9.07784 13.2766 8.92422 13.277 8.79777 13.3477L4.4012 15.8082C4.09094 15.9819 3.71912 15.7123 3.78841 15.3635L4.77012 10.4224C4.79836 10.2803 4.75111 10.1335 4.64472 10.0351L0.945801 6.61422Z"/>
</mask>
<path d="M1.17964 5.89454L2.12157 13.8389L2.12192 13.8389L1.17964 5.89454ZM0.945801 6.61422L6.37764 0.740961L6.37742 0.740758L0.945801 6.61422ZM4.64472 10.0351L-0.787111 15.9084L-0.786896 15.9086L4.64472 10.0351ZM4.77012 10.4224L-3.07648 8.86334L-3.07651 8.86345L4.77012 10.4224ZM3.78841 15.3635L11.635 16.9226L11.635 16.9225L3.78841 15.3635ZM4.4012 15.8082L0.494361 8.82702L0.493664 8.82741L4.4012 15.8082ZM8.79777 13.3477L12.7046 20.3289L12.7053 20.3285L8.79777 13.3477ZM9.20429 13.3474L13.1126 6.36708L13.1118 6.36665L9.20429 13.3474ZM13.6004 15.8088L9.69209 22.7892L9.69287 22.7896L13.6004 15.8088ZM14.2125 15.3635L6.36581 16.9222L6.36591 16.9227L14.2125 15.3635ZM13.231 10.4221L21.0777 8.86348L21.0776 8.86301L13.231 10.4221ZM13.3565 10.0352L18.7881 15.9086L18.7886 15.9081L13.3565 10.0352ZM17.0549 6.61435L11.6233 0.74089L11.6227 0.74138L17.0549 6.61435ZM16.8215 5.89454L15.8795 13.8389L15.8795 13.8389L16.8215 5.89454ZM11.8182 5.30128L12.7602 -2.64307L12.7601 -2.64307L11.8182 5.30128ZM11.4894 5.06202L18.7539 1.71124L18.7539 1.7112L11.4894 5.06202ZM9.37923 0.487234L2.11478 3.83801L2.1148 3.83806L9.37923 0.487234ZM8.6224 0.487296L15.8868 3.8381L15.8869 3.83807L8.6224 0.487296ZM6.51221 5.06212L-0.752234 1.71131L-0.752253 1.71136L6.51221 5.06212ZM6.18262 5.30113L5.24068 -2.64322L5.24033 -2.64318L6.18262 5.30113ZM0.237704 -2.04981C-6.89453 -1.20417 -9.75884 7.61133 -4.48581 12.4877L6.37742 0.740758C11.1284 5.1343 8.54765 13.077 2.12157 13.8389L0.237704 -2.04981ZM-4.48603 12.4875L-0.787111 15.9084L10.0766 4.16188L6.37764 0.740961L-4.48603 12.4875ZM-0.786896 15.9086C-2.73672 14.1055 -3.58687 11.432 -3.07648 8.86334L12.6167 11.9815C13.1836 9.12863 12.2389 6.1616 10.0763 4.16168L-0.786896 15.9086ZM-3.07651 8.86345L-4.05822 13.8045L11.635 16.9225L12.6167 11.9814L-3.07651 8.86345ZM-4.05819 13.8044C-5.46158 20.8673 2.05797 26.2879 8.30873 22.789L0.493664 8.82741C6.12391 5.67584 12.8998 10.5572 11.635 16.9226L-4.05819 13.8044ZM8.30804 22.7893L12.7046 20.3289L4.89093 6.36659L0.494361 8.82702L8.30804 22.7893ZM12.7053 20.3285C10.4165 21.6097 7.61061 21.6234 5.29675 20.3282L13.1118 6.36665C10.5451 4.92989 7.43193 4.94425 4.89023 6.36698L12.7053 20.3285ZM5.29598 20.3278L9.69209 22.7892L17.5087 8.82847L13.1126 6.36708L5.29598 20.3278ZM9.69287 22.7896C15.9763 26.3068 23.4552 20.8306 22.0591 13.8044L6.36591 16.9227C5.1084 10.594 11.845 5.65817 17.5079 8.82804L9.69287 22.7896ZM22.0592 13.8049L21.0777 8.86348L5.38426 11.9808L6.36581 16.9222L22.0592 13.8049ZM21.0776 8.86301C21.5898 11.4409 20.731 14.1119 18.7881 15.9086L7.92486 4.1617C5.76915 6.15524 4.81564 9.11907 5.38436 11.9813L21.0776 8.86301ZM18.7886 15.9081L22.487 12.4873L11.6227 0.74138L7.92432 4.1622L18.7886 15.9081ZM22.4865 12.4878C27.7466 7.62343 24.9131 -1.20209 17.7634 -2.04981L15.8795 13.8389C9.43594 13.0749 6.88528 5.12246 11.6233 0.74089L22.4865 12.4878ZM17.7635 -2.0498L12.7602 -2.64307L10.8762 13.2456L15.8795 13.8389L17.7635 -2.0498ZM12.7601 -2.64307C15.3927 -2.33093 17.655 -0.671162 18.7539 1.71124L4.22497 8.4128C5.44526 11.0584 7.95587 12.8994 10.8763 13.2456L12.7601 -2.64307ZM18.7539 1.7112L16.6437 -2.86359L2.1148 3.83806L4.22499 8.41285L18.7539 1.7112ZM16.6437 -2.86354C13.6344 -9.38773 4.36509 -9.38295 1.35794 -2.86348L15.8869 3.83807C13.1776 9.71181 4.82625 9.71647 2.11478 3.83801L16.6437 -2.86354ZM1.35796 -2.86351L-0.752234 1.71131L13.7766 8.41292L15.8868 3.8381L1.35796 -2.86351ZM-0.752253 1.71136C0.358988 -0.697816 2.63736 -2.33455 5.24068 -2.64322L7.12456 13.2455C10.0157 12.9027 12.544 11.0852 13.7767 8.41288L-0.752253 1.71136ZM5.24033 -2.64318L0.237355 -2.04977L2.12192 13.8389L7.1249 13.2454L5.24033 -2.64318Z" fill="#FFCC00" mask="url(#path-1-inside-1_549_2343)"/>
</svg>
